<?xml version="1.0" encoding="UTF-8" standalone="no"?>
<svg
   viewBox="0 0 425.23999 440.64935"
   version="1.1"
   id="svg574"
   sodipodi:docname="d955d7e9de987ef8323f66760d5d66f6.svg"
   width="425.23999"
   height="440.64935"
   xmlns:inkscape="http://www.inkscape.org/namespaces/inkscape"
   xmlns:sodipodi="http://sodipodi.sourceforge.net/DTD/sodipodi-0.dtd"
   xmlns="http://www.w3.org/2000/svg"
   xmlns:svg="http://www.w3.org/2000/svg">
  <defs
     id="defs578" />
  <sodipodi:namedview
     id="namedview576"
     pagecolor="#ffffff"
     bordercolor="#666666"
     borderopacity="1.0"
     inkscape:pageshadow="2"
     inkscape:pageopacity="0.0"
     inkscape:pagecheckerboard="0" />
  <g
     id="freepik--background-complete--inject-48"
     transform="translate(-37.38,-34.870643)">
    <path
       d="m 373.23,244 a 21.78,21.78 0 0 1 2.12,-5.37 l -2.92,-4.47 6.15,-6.36 4.57,2.78 a 21.6,21.6 0 0 1 5.3,-2.3 l 1.09,-5.23 8.85,-0.15 1.27,5.2 a 21.78,21.78 0 0 1 5.37,2.12 l 4.47,-2.93 6.36,6.16 -2.78,4.55 a 21.53,21.53 0 0 1 2.3,5.29 l 5.23,1.1 0.15,8.85 -5.2,1.27 a 21.87,21.87 0 0 1 -2.12,5.36 l 2.93,4.48 -6.16,6.36 -4.57,-2.71 a 21.91,21.91 0 0 1 -5.29,2.3 l -1.1,5.23 -8.85,0.14 -1.27,-5.19 a 21.87,21.87 0 0 1 -5.36,-2.12 l -4.48,2.92 -6.36,-6.15 2.78,-4.57 a 22,22 0 0 1 -2.3,-5.3 l -5.23,-1.09 -0.14,-8.85 5.19,-1.27 z m 11.67,5 a 9.49,9.49 0 1 0 9.34,-9.65 9.48,9.48 0 0 0 -9.34,9.65 z"
       style="fill:none"
       id="path2" />
    <path
       d="m 384.9,249 a 7.24,7.24 0 0 1 0.16,-2.35 9.57,9.57 0 0 1 7.38,-7.32 9.8,9.8 0 0 1 5.12,0.31 9.78,9.78 0 0 1 4.59,3.31 9.7,9.7 0 0 1 0.19,11.52 9.05,9.05 0 0 1 -2,2.1 9.19,9.19 0 0 1 -2.44,1.36 9.75,9.75 0 0 1 -5.11,0.48 9.6,9.6 0 0 1 -7.62,-7.08 7.32,7.32 0 0 1 -0.23,-2.33 21.12,21.12 0 0 0 0.43,2.28 9.5,9.5 0 0 0 3.55,5.05 9.28,9.28 0 0 0 8.8,1.15 8.88,8.88 0 0 0 2.32,-1.3 8.7,8.7 0 0 0 1.92,-2 9.22,9.22 0 0 0 -0.18,-10.92 8.88,8.88 0 0 0 -2,-1.94 8.69,8.69 0 0 0 -2.36,-1.22 9.29,9.29 0 0 0 -4.87,-0.34 9.12,9.12 0 0 0 -3.89,1.77 9.45,9.45 0 0 0 -3.38,5.17 19.37,19.37 0 0 0 -0.38,2.3 z"
       style="fill:#e0e0e0"
       id="path4" />
    <path
       d="m 373.23,244 a 1.31,1.31 0 0 1 -0.32,0.1 l -1,0.26 -3.87,1 0.06,-0.08 c 0.05,2.26 0.11,5.24 0.19,8.84 l -0.1,-0.12 5.24,1.07 h 0.09 v 0.09 a 21.81,21.81 0 0 0 2.3,5.25 l 0.05,0.09 -0.05,0.08 -2.77,4.58 v -0.23 l 6.37,6.15 h -0.25 l 4.47,-2.93 0.11,-0.08 0.11,0.07 a 22.18,22.18 0 0 0 5.32,2.09 h 0.13 v 0.14 c 0.4,1.61 0.83,3.38 1.28,5.19 l -0.23,-0.18 8.85,-0.15 -0.24,0.19 c 0.34,-1.63 0.72,-3.42 1.09,-5.24 v -0.14 h 0.15 a 21.48,21.48 0 0 0 5.23,-2.28 l 0.13,-0.08 0.13,0.08 4.57,2.78 h -0.31 l 6.15,-6.36 v 0.32 l -2.93,-4.48 -0.08,-0.13 0.07,-0.14 a 21.33,21.33 0 0 0 2.1,-5.29 v 0 -0.15 h 0.15 l 5.2,-1.26 -0.2,0.25 c -0.05,-3 -0.1,-5.94 -0.14,-8.85 l 0.2,0.25 -5.23,-1.1 h -0.15 l -0.05,-0.15 a 21.38,21.38 0 0 0 -2.26,-5.23 l -0.08,-0.13 0.08,-0.13 2.78,-4.57 v 0.31 l -6.35,-6.16 h 0.29 l -4.48,2.93 -0.12,0.07 -0.12,-0.07 a 21.53,21.53 0 0 0 -5.3,-2.1 h -0.14 v -0.13 l -1.26,-5.2 0.22,0.17 -8.85,0.13 0.19,-0.16 c -0.39,1.84 -0.76,3.56 -1.11,5.23 v 0.11 h -0.11 a 21.68,21.68 0 0 0 -5.26,2.26 l -0.09,0.06 -0.09,-0.06 -4.49,-2.78 h 0.19 l -6.18,6.34 v -0.15 l 2.89,4.5 v 0 0 a 22.2,22.2 0 0 0 -1.77,4 c -0.14,0.44 -0.24,0.78 -0.32,1 -0.08,0.22 -0.11,0.34 -0.11,0.34 0,0 0,-0.12 0.07,-0.35 0.07,-0.23 0.14,-0.58 0.28,-1 a 20.87,20.87 0 0 1 1.7,-4 v 0.09 c -0.8,-1.22 -1.77,-2.68 -2.95,-4.46 l -0.05,-0.08 0.06,-0.06 6.13,-6.39 0.09,-0.09 0.1,0.07 4.58,2.76 h -0.17 a 21.58,21.58 0 0 1 5.33,-2.33 l -0.14,0.14 c 0.35,-1.66 0.71,-3.39 1.09,-5.23 v -0.16 h 0.16 l 8.85,-0.16 h 0.17 v 0.17 c 0.42,1.69 0.84,3.41 1.28,5.19 l -0.17,-0.16 a 21.76,21.76 0 0 1 5.43,2.14 h -0.24 l 4.47,-2.94 0.16,-0.1 0.14,0.13 6.37,6.15 0.14,0.14 -0.11,0.17 -2.77,4.57 v -0.26 a 21.86,21.86 0 0 1 2.33,5.35 l -0.2,-0.18 5.24,1.1 h 0.2 v 0.21 q 0.08,4.37 0.15,8.84 v 0.21 l -0.2,0.05 -5.2,1.27 0.2,-0.19 v 0 a 22.28,22.28 0 0 1 -2.14,5.43 v -0.27 l 2.92,4.48 0.12,0.17 -0.15,0.15 -6.16,6.36 -0.14,0.14 -0.17,-0.1 -4.57,-2.79 h 0.26 a 21.55,21.55 0 0 1 -5.36,2.32 l 0.18,-0.18 c -0.38,1.81 -0.76,3.6 -1.1,5.23 v 0.19 h -0.2 l -8.85,0.14 h -0.18 v -0.18 l -1.26,-5.2 0.16,0.17 a 22.31,22.31 0 0 1 -5.42,-2.16 h 0.23 l -4.49,2.91 -0.13,0.09 -0.12,-0.11 -6.35,-6.17 -0.1,-0.1 0.07,-0.13 2.79,-4.56 v 0.17 a 21.94,21.94 0 0 1 -2.29,-5.34 l 0.11,0.11 -5.23,-1.11 h -0.1 v -0.1 c 0,-3.61 -0.07,-6.59 -0.1,-8.85 v -0.07 H 368 l 3.86,-0.9 1,-0.22 z"
       style="fill:#e0e0e0"
       id="path6" />
    <path
       d="m 114.41,219.61 a 24.61,24.61 0 0 1 2.37,-6 l -3.27,-5 6.88,-7.11 5.12,3.11 a 24.46,24.46 0 0 1 5.92,-2.57 l 1.22,-5.85 9.9,-0.16 1.42,5.81 a 24.21,24.21 0 0 1 6,2.37 l 5,-3.27 7.11,6.88 -3.08,5.11 a 24.29,24.29 0 0 1 2.57,5.92 l 5.85,1.22 0.16,9.9 -5.81,1.42 a 24.21,24.21 0 0 1 -2.37,6 l 3.27,5 -6.88,7.11 -5.12,-3.11 a 24.29,24.29 0 0 1 -5.92,2.57 l -1.22,5.85 -9.9,0.16 -1.42,-5.81 a 24.21,24.21 0 0 1 -6,-2.37 l -5,3.27 -7.11,-6.88 3.11,-5.12 a 24.46,24.46 0 0 1 -2.57,-5.92 l -5.85,-1.22 -0.16,-9.9 5.81,-1.42 z m 13,5.61 a 10.62,10.62 0 1 0 10.44,-10.79 10.62,10.62 0 0 0 -10.39,10.79 z"
       style="fill:#e0e0e0;fill-rule:evenodd"
       id="path8" />
    <path
       d="m 342.47,194 a 7,7 0 0 1 0.68,-1.73 l -0.94,-1.45 2,-2.05 1.47,0.9 a 7.28,7.28 0 0 1 1.71,-0.75 l 0.35,-1.69 h 2.86 l 0.41,1.67 a 7.27,7.27 0 0 1 1.73,0.69 l 1.45,-0.94 2.05,2 -0.89,1.48 a 7.25,7.25 0 0 1 0.74,1.71 l 1.69,0.35 v 2.86 l -1.67,0.41 a 7.44,7.44 0 0 1 -0.69,1.73 l 0.95,1.45 -2,2 -1.48,-0.9 a 6.86,6.86 0 0 1 -1.71,0.74 l -0.35,1.69 -2.86,0.05 -0.41,-1.68 a 7,7 0 0 1 -1.73,-0.68 l -1.45,0.94 -2.05,-2 0.9,-1.48 a 6.86,6.86 0 0 1 -0.74,-1.71 l -1.69,-0.35 v -2.86 l 1.68,-0.41 z m 3.76,1.62 a 3.07,3.07 0 1 0 3,-3.12 3.07,3.07 0 0 0 -3,3.16 z"
       style="fill:#e0e0e0;fill-rule:evenodd"
       id="path10" />
    <path
       d="m 48.58,223.62 a 9.94,9.94 0 0 1 1,-2.39 l -1.31,-2 2.73,-2.85 2,1.24 a 9.36,9.36 0 0 1 2.36,-1 l 0.49,-2.34 4,-0.07 0.57,2.32 a 10.37,10.37 0 0 1 2.39,1 l 2,-1.3 2.84,2.75 -1.24,2 a 9.81,9.81 0 0 1 1,2.37 l 2.34,0.49 0.07,3.95 -2.33,0.57 a 10,10 0 0 1 -0.94,2.4 l 1.3,2 -2.75,2.84 -2,-1.24 a 9.43,9.43 0 0 1 -2.37,1 l -0.49,2.34 -4,0.07 -0.57,-2.32 a 10,10 0 0 1 -2.4,-0.95 l -2,1.31 -2.82,-2.81 1.24,-2 a 9.28,9.28 0 0 1 -1,-2.37 l -2.34,-0.49 -0.07,-3.95 2.32,-0.57 z m 5.22,2.24 a 4.24,4.24 0 1 0 4.2,-4.31 4.24,4.24 0 0 0 -4.2,4.31 z"
       style="fill:#ebebeb;fill-rule:evenodd"
       id="path12" />
    <path
       d="m 408.34,159.92 a 22.21,22.21 0 0 1 2.17,-5.49 l -3,-4.58 6.3,-6.51 4.67,2.84 a 22.38,22.38 0 0 1 5.42,-2.34 l 1.12,-5.36 9.05,-0.15 1.3,5.32 a 22.37,22.37 0 0 1 5.49,2.17 l 4.58,-3 6.5,6.29 -2.84,4.68 a 22,22 0 0 1 2.35,5.41 l 5.36,1.13 0.14,9 -5.31,1.29 a 22.06,22.06 0 0 1 -2.17,5.49 l 3,4.58 -6.3,6.51 -4.67,-2.84 a 22.4,22.4 0 0 1 -5.42,2.35 l -1.08,5.41 -9,0.15 -1.3,-5.32 a 22,22 0 0 1 -5.49,-2.17 l -4.58,3 -6.5,-6.3 2.84,-4.68 a 22,22 0 0 1 -2.35,-5.41 l -5.35,-1.12 -0.15,-9.06 5.31,-1.29 z m 11.94,5.13 a 9.71,9.71 0 1 0 9.55,-9.87 9.7,9.7 0 0 0 -9.55,9.87 z"
       style="fill:#ebebeb;fill-rule:evenodd"
       id="path14" />
    <path
       d="m 62.94,310.83 a 19.9,19.9 0 0 1 2,-5 l -2.71,-4.15 5.7,-5.89 4.23,2.58 a 19.83,19.83 0 0 1 4.9,-2.13 l 1,-4.85 8.19,-0.13 1.18,4.81 a 20.21,20.21 0 0 1 5,2 l 4.14,-2.71 5.89,5.7 -2.57,4.23 a 20.18,20.18 0 0 1 2.12,4.9 l 4.85,1 0.14,8.19 -4.82,1.18 a 20.19,20.19 0 0 1 -2,5 l 2.71,4.14 -5.7,5.89 L 93,333 a 20.26,20.26 0 0 1 -4.9,2.13 L 87,340 l -8.2,0.14 -1.17,-4.81 a 20.29,20.29 0 0 1 -5,-2 l -4.15,2.71 -5.89,-5.7 2.58,-4.24 a 19.51,19.51 0 0 1 -2.13,-4.9 l -4.85,-1 -0.13,-8.2 4.81,-1.17 z m 10.8,4.64 a 8.8,8.8 0 1 0 8.65,-8.93 8.79,8.79 0 0 0 -8.65,8.93 z"
       style="fill:#f5f5f5;fill-rule:evenodd"
       id="path16" />
    <path
       d="m 234.89,141.28 a 9.07,9.07 0 0 1 0.85,-2.17 l -1.18,-1.8 2.49,-2.57 1.84,1.12 a 8.8,8.8 0 0 1 2.13,-0.92 l 0.45,-2.11 3.56,-0.06 0.51,2.09 a 8.55,8.55 0 0 1 2.17,0.86 l 1.8,-1.18 2.57,2.48 -1.08,1.85 a 8.42,8.42 0 0 1 0.92,2.13 l 2.11,0.44 0.06,3.57 -2.09,0.51 a 8.7,8.7 0 0 1 -0.86,2.17 l 1.18,1.8 -2.48,2.57 -1.84,-1.12 a 8.87,8.87 0 0 1 -2.14,0.92 l -0.44,2.11 -3.57,0.06 -0.51,-2.09 a 8.48,8.48 0 0 1 -2.16,-0.86 l -1.81,1.18 -2.56,-2.48 1.12,-1.85 A 8.82,8.82 0 0 1 235,145.8 l -2.11,-0.44 -0.06,-3.57 2.1,-0.51 z m 4.7,2 a 3.83,3.83 0 1 0 3.77,-3.89 3.84,3.84 0 0 0 -3.77,3.91 z"
       style="fill:#f5f5f5;fill-rule:evenodd"
       id="path18" />
    <path
       d="m 420,390.92 c 4.5,-2.32 9.79,-2.62 14.78,-1.8 2.69,0.45 5.48,1.25 7.31,3.26 1.83,2.01 2.17,5.56 0.07,7.29 a 6.91,6.91 0 0 1 -4.6,1.17 c -3.91,0 -8.25,-0.73 -11.37,1.62 -1.78,1.34 -3,3.57 -5.1,4.23 a 5,5 0 0 1 -5.54,-2.46 8.6,8.6 0 0 1 -0.62,-6.35 9.7,9.7 0 0 1 5.07,-6.96 z"
       style="fill:#ebebeb"
       id="path20" />
    <path
       d="m 409.66,371 c 2.75,3.93 8.09,2.63 10.57,0.23 2.48,-2.4 3.52,-5.87 4.48,-9.18 2.18,-7.57 4.37,-15.52 2.75,-23.23 a 12.86,12.86 0 0 0 -3,-6.31 6.72,6.72 0 0 0 -6.39,-2.12 c -2.69,0.71 -4.37,3.35 -5.58,5.86 A 55.35,55.35 0 0 0 407.06,360 c 0,3.83 0.44,7.84 2.6,11"
       style="fill:#ebebeb"
       id="path22" />
    <path
       d="m 402.11,376.67 c 3,-3.55 3.55,-8.72 2.22,-13.16 -1.33,-4.44 -4.33,-8.21 -7.79,-11.29 a 41.81,41.81 0 0 0 -14,-8.23 14.87,14.87 0 0 0 -6.27,-1.07 6.55,6.55 0 0 0 -5.26,3.19 c -1.47,2.8 -0.07,6.19 1.46,9 a 106.42,106.42 0 0 0 9.21,13.89 c 2.74,3.54 5.89,7 10.07,8.63 4.18,1.63 8.54,1.42 10.75,-1.49"
       style="fill:#ebebeb"
       id="path24" />
    <path
       d="m 409.47,430.28 a 8.48,8.48 0 0 0 0.25,-1.79 c 0.13,-1.3 0.28,-2.93 0.47,-4.87 a 70.83,70.83 0 0 1 1.1,-7.14 54.77,54.77 0 0 1 2.6,-8.44 31.09,31.09 0 0 1 4.3,-7.62 16,16 0 0 1 5.44,-4.53 15.56,15.56 0 0 1 4.59,-1.43 8.61,8.61 0 0 0 1.78,-0.25 7.68,7.68 0 0 0 -1.81,0 14,14 0 0 0 -4.78,1.24 16,16 0 0 0 -5.74,4.57 30,30 0 0 0 -4.47,7.78 52.18,52.18 0 0 0 -2.58,8.57 62.27,62.27 0 0 0 -0.95,7.23 c -0.15,2.07 -0.21,3.75 -0.24,4.9 a 8.89,8.89 0 0 0 0.04,1.78 z"
       style="fill:#e0e0e0"
       id="path26" />
    <path
       d="m 409.81,426.53 a 3.84,3.84 0 0 0 0,-0.83 v -2.37 c 0,-2.05 0,-5 0.1,-8.7 0.19,-7.34 0.82,-15.25 2,-26.39 1.16,-10.48 2.71,-22.68 4.35,-30.61 0.35,-1.8 0.7,-3.42 1,-4.84 0.3,-1.42 0.59,-2.66 0.86,-3.65 0.27,-0.99 0.4,-1.7 0.55,-2.3 a 2.94,2.94 0 0 0 0.14,-0.82 4,4 0 0 0 -0.28,0.78 l -0.69,2.27 c -0.31,1 -0.62,2.2 -1,3.62 -0.38,1.42 -0.76,3 -1.14,4.83 a 268.55,268.55 0 0 0 -4.57,28.4 c -1.23,11.17 -1.78,21.34 -1.83,28.7 0,3.68 0,6.66 0.13,8.72 0.06,1 0.11,1.74 0.15,2.37 a 3.14,3.14 0 0 0 0.23,0.82 z"
       style="fill:#e0e0e0"
       id="path28" />
    <path
       d="m 409.86,406.92 a 16.24,16.24 0 0 0 0,-2.48 c -0.09,-1.59 -0.31,-3.88 -0.76,-6.7 a 87.45,87.45 0 0 0 -2.2,-9.74 79.53,79.53 0 0 0 -4.08,-11.56 61.73,61.73 0 0 0 -12,-18.67 30.88,30.88 0 0 0 -2.82,-2.62 c -0.44,-0.37 -0.82,-0.73 -1.21,-1 l -1.09,-0.76 a 15.66,15.66 0 0 0 -2.09,-1.33 c -0.11,0.16 2.95,2 6.83,6.09 a 64.87,64.87 0 0 1 11.69,18.6 91.53,91.53 0 0 1 4.11,11.45 c 1.07,3.59 1.78,6.89 2.32,9.67 0.54,2.78 0.8,5.06 1,6.64 a 14.61,14.61 0 0 0 0.3,2.41 z"
       style="fill:#e0e0e0"
       id="path30" />
    <polygon
       points="427.45,468.43 429.42,441.51 390.9,441.51 392.87,468.43 "
       style="fill:#e0e0e0"
       id="polygon32" />
    <rect
       x="387.56"
       y="430.89999"
       width="45.98"
       height="10.61"
       style="fill:#e0e0e0"
       id="rect34" />
    <polygon
       points="389.72,470.35 432.78,470.35 432.78,467.4 387.56,467.4 387.56,470.35 "
       style="fill:#ebebeb"
       id="polygon36" />
    <polygon
       points="431.14,470.35 428.67,475.52 391.84,475.52 389.72,470.35 "
       style="fill:#e0e0e0"
       id="polygon38" />
    <path
       d="m 428.77,450.31 c 0,0 0,0.09 -0.16,0.25 l -0.51,0.68 -2,2.58 -0.09,0.12 -0.08,-0.12 L 421,447 h 0.28 l -4.87,6.9 -0.16,0.22 -0.17,-0.21 -5.82,-6.91 h 0.34 l -0.32,0.4 -5.17,6.48 -0.17,0.22 -0.16,-0.23 -4.88,-6.87 h 0.29 c -2.41,2.73 -4.44,5.06 -6,6.84 l -0.1,0.12 -0.09,-0.14 -1.88,-3.16 -0.48,-0.84 a 1.64,1.64 0 0 1 -0.15,-0.3 1.92,1.92 0 0 1 0.21,0.27 l 0.53,0.81 2,3.1 H 394 c 1.53,-1.81 3.54,-4.16 5.9,-6.93 l 0.15,-0.17 0.14,0.18 4.92,6.87 h -0.33 l 5.15,-6.49 0.32,-0.4 0.16,-0.2 0.17,0.2 5.77,6.89 H 416 l 4.93,-6.86 0.14,-0.2 0.14,0.2 4.85,6.92 h -0.18 c 0.88,-1.06 1.58,-1.9 2.1,-2.51 l 0.56,-0.65 z"
       style="fill:#f5f5f5"
       id="path40" />
    <path
       d="m 429.9,441.33 c 0,0.12 -8.67,0.22 -19.36,0.22 -10.69,0 -19.35,-0.1 -19.35,-0.22 0,-0.12 8.66,-0.21 19.35,-0.21 10.69,0 19.36,0.09 19.36,0.21 z"
       style="fill:#f5f5f5"
       id="path42" />
    <path
       d="m 431.65,470.63 c 0,0.12 -9.42,0.22 -21,0.22 -11.58,0 -21,-0.1 -21,-0.22 0,-0.12 9.42,-0.21 21,-0.21 11.58,0 21,0.1 21,0.21 z"
       style="fill:#f5f5f5"
       id="path44" />
    <path
       d="m 67.42,169.17 a 10.87,10.87 0 0 1 1.79,0 c 0.58,0 1.29,0 2.1,0.06 0.81,0.06 1.76,0.09 2.78,0.22 a 64.67,64.67 0 0 1 7.17,1.13 71.67,71.67 0 0 1 8.54,2.42 72,72 0 0 1 8.12,3.61 62.75,62.75 0 0 1 6.21,3.76 c 0.87,0.56 1.6,1.14 2.27,1.62 0.67,0.48 1.21,0.93 1.65,1.31 a 12.38,12.38 0 0 1 1.34,1.19 10.53,10.53 0 0 1 -1.47,-1 c -0.46,-0.35 -1,-0.77 -1.7,-1.23 -0.7,-0.46 -1.42,-1 -2.29,-1.56 -1.71,-1.13 -3.83,-2.37 -6.23,-3.63 a 76.93,76.93 0 0 0 -8.08,-3.55 77.6,77.6 0 0 0 -8.46,-2.5 72.05,72.05 0 0 0 -7.11,-1.24 c -1,-0.15 -1.94,-0.2 -2.76,-0.29 -0.82,-0.09 -1.51,-0.12 -2.09,-0.15 a 11.41,11.41 0 0 1 -1.78,-0.17 z"
       style="fill:#ebebeb"
       id="path46" />
    <path
       d="m 48.89,280.58 a 3.13,3.13 0 0 1 0.54,-0.46 l 1.6,-1.21 c 0.69,-0.53 1.56,-1.17 2.6,-1.85 1.04,-0.68 2.19,-1.5 3.54,-2.29 1.35,-0.79 2.79,-1.71 4.42,-2.57 1.63,-0.86 3.37,-1.76 5.23,-2.67 a 109,109 0 0 1 12.52,-4.92 110.78,110.78 0 0 1 13.07,-3.19 c 2,-0.32 4,-0.66 5.82,-0.83 1.82,-0.17 3.53,-0.36 5.09,-0.45 1.56,-0.09 3,-0.13 4.22,-0.16 1.22,-0.03 2.31,0 3.18,0 l 2,0.07 a 3.2,3.2 0 0 1 0.7,0.06 3.45,3.45 0 0 1 -0.7,0 h -2 c -0.87,0 -1.94,0 -3.18,0.08 -1.24,0.08 -2.64,0.08 -4.19,0.24 -1.55,0.16 -3.26,0.25 -5.07,0.51 -1.81,0.26 -3.75,0.54 -5.78,0.87 a 114.31,114.31 0 0 0 -13,3.22 A 115.86,115.86 0 0 0 67,270 c -1.85,0.9 -3.62,1.73 -5.22,2.62 -1.6,0.89 -3.1,1.71 -4.44,2.5 -1.34,0.79 -2.52,1.57 -3.57,2.23 -1.05,0.66 -1.93,1.26 -2.64,1.76 l -1.66,1.14 a 4.71,4.71 0 0 1 -0.58,0.33 z"
       style="fill:#ebebeb"
       id="path48" />
    <path
       d="m 120.76,334.33 a 2.15,2.15 0 0 1 0.07,-0.54 l 0.3,-1.54 c 0.13,-0.66 0.31,-1.47 0.55,-2.4 0.24,-0.93 0.48,-2 0.83,-3.17 0.65,-2.34 1.54,-5.08 2.67,-8.09 1.13,-3.01 2.53,-6.24 4.18,-9.56 1.65,-3.32 3.44,-6.36 5.15,-9.08 1.71,-2.72 3.4,-5.06 4.89,-7 0.72,-1 1.43,-1.81 2,-2.56 0.57,-0.75 1.14,-1.37 1.6,-1.88 l 1,-1.16 c 0.25,-0.26 0.38,-0.39 0.4,-0.38 a 2.17,2.17 0 0 1 -0.32,0.45 c -0.25,0.33 -0.58,0.73 -1,1.22 -0.42,0.49 -0.95,1.17 -1.53,1.94 -0.58,0.77 -1.27,1.61 -2,2.6 -1.44,1.93 -3.06,4.31 -4.77,7 -1.71,2.69 -3.43,5.76 -5.09,9.06 -1.66,3.3 -3,6.52 -4.21,9.49 -1.21,2.97 -2.07,5.71 -2.76,8 -0.37,1.16 -0.64,2.22 -0.9,3.14 -0.26,0.92 -0.47,1.72 -0.63,2.38 -0.16,0.66 -0.29,1.11 -0.4,1.51 a 2.61,2.61 0 0 1 -0.03,0.57 z"
       style="fill:#ebebeb"
       id="path50" />
    <path
       d="m 256.62,59.85 a 4,4 0 0 1 -0.39,0.6 L 255,62.14 c -0.53,0.72 -1.17,1.61 -1.87,2.67 -0.7,1.06 -1.55,2.24 -2.39,3.6 -0.84,1.36 -1.74,2.83 -2.74,4.46 -1,1.63 -1.93,3.39 -2.95,5.24 -2,3.75 -4,8 -5.83,12.47 -1.83,4.47 -3.32,8.94 -4.53,13 -0.56,2 -1.13,4 -1.55,5.81 -0.42,1.81 -0.82,3.54 -1.15,5.11 -0.33,1.57 -0.57,3 -0.8,4.24 -0.23,1.24 -0.4,2.34 -0.52,3.23 -0.12,0.89 -0.24,1.52 -0.32,2 a 3.25,3.25 0 0 1 -0.15,0.7 3.9,3.9 0 0 1 0,-0.72 c 0.06,-0.52 0.13,-1.2 0.23,-2 0.1,-0.8 0.22,-2 0.44,-3.24 0.22,-1.24 0.39,-2.7 0.72,-4.27 0.33,-1.57 0.64,-3.31 1.09,-5.14 0.45,-1.83 1,-3.79 1.51,-5.84 1.19,-4.08 2.67,-8.52 4.5,-13.07 1.83,-4.55 3.9,-8.75 5.9,-12.49 1,-1.86 2,-3.63 3,-5.24 1,-1.61 1.92,-3.1 2.8,-4.44 0.88,-1.34 1.73,-2.52 2.46,-3.56 0.73,-1.04 1.39,-1.93 2,-2.63 0.61,-0.7 0.95,-1.22 1.28,-1.63 a 2.87,2.87 0 0 1 0.49,-0.55 z"
       style="fill:#ebebeb"
       id="path52" />
    <path
       d="m 346.65,163.74 a 2.88,2.88 0 0 1 -0.6,0.11 l -1.73,0.23 -1.25,0.15 c -0.46,0.07 -0.95,0.18 -1.47,0.27 -1.06,0.22 -2.27,0.39 -3.57,0.77 l -2,0.53 c -0.72,0.19 -1.44,0.46 -2.19,0.7 -1.53,0.46 -3.09,1.14 -4.74,1.81 a 57.83,57.83 0 0 0 -18.89,13.27 c -1.19,1.33 -2.36,2.57 -3.3,3.85 -0.48,0.63 -1,1.21 -1.41,1.81 l -1.24,1.76 c -0.8,1.09 -1.37,2.18 -1.93,3.09 -0.27,0.47 -0.54,0.89 -0.76,1.3 l -0.56,1.12 -0.8,1.55 a 2.44,2.44 0 0 1 -0.32,0.53 3.28,3.28 0 0 1 0.22,-0.57 c 0.19,-0.42 0.42,-1 0.72,-1.6 l 0.52,-1.15 c 0.21,-0.41 0.47,-0.84 0.73,-1.32 a 36.3,36.3 0 0 1 1.87,-3.16 l 1.18,-1.78 c 0.41,-0.62 0.91,-1.21 1.39,-1.85 0.94,-1.3 2.1,-2.56 3.29,-3.91 a 56.24,56.24 0 0 1 19.05,-13.38 c 1.67,-0.66 3.25,-1.33 4.79,-1.78 0.77,-0.23 1.5,-0.5 2.22,-0.68 l 2.07,-0.5 a 34.58,34.58 0 0 1 3.61,-0.69 c 0.53,-0.09 1,-0.18 1.49,-0.23 l 1.26,-0.11 1.74,-0.13 a 2.18,2.18 0 0 1 0.61,-0.01 z"
       style="fill:#ebebeb"
       id="path54" />
    <path
       d="m 420.18,223.25 -0.26,-0.08 -0.75,-0.25 -2.87,-1 -2.07,-0.76 c -0.76,-0.26 -1.6,-0.51 -2.5,-0.8 -1.79,-0.56 -3.81,-1.27 -6.11,-1.85 l -3.58,-1 c -1.25,-0.34 -2.57,-0.6 -3.92,-0.92 -2.7,-0.67 -5.64,-1.16 -8.71,-1.72 a 150.92,150.92 0 0 0 -40.57,-1.24 c -3.1,0.37 -6.06,0.68 -8.8,1.18 -1.37,0.24 -2.7,0.42 -4,0.68 l -3.63,0.75 c -2.33,0.44 -4.39,1 -6.22,1.48 -0.91,0.23 -1.76,0.43 -2.53,0.64 l -2.12,0.63 -2.92,0.86 -0.77,0.21 a 1,1 0 0 1 -0.27,0 l 0.25,-0.1 0.75,-0.26 2.9,-1 2.11,-0.67 c 0.77,-0.23 1.62,-0.45 2.53,-0.7 1.82,-0.47 3.88,-1.08 6.21,-1.55 l 3.64,-0.79 c 1.26,-0.27 2.6,-0.46 4,-0.7 2.75,-0.53 5.71,-0.85 8.82,-1.24 a 147.09,147.09 0 0 1 40.7,1.25 c 3.08,0.58 6,1.08 8.72,1.77 1.36,0.33 2.68,0.6 3.93,1 l 3.58,1 c 2.3,0.61 4.31,1.35 6.1,1.93 0.9,0.3 1.73,0.57 2.49,0.85 l 2.06,0.8 2.84,1.12 0.73,0.31 c 0.16,0.12 0.25,0.16 0.24,0.17 z"
       style="fill:#ebebeb"
       id="path56" />
  </g>
  <g
     id="freepik--speech-bubble--inject-48"
     transform="translate(-37.38,-34.870643)">
    <path
       d="m 264.75,59.34 v 28.52 c -6.47,6.35 -29.85,29.93 -29.85,29.93 h 29.85 v 22.45 a 14.49,14.49 0 0 0 14.35,14.48 l 165.48,1.56 A 14.47,14.47 0 0 0 459.19,141.8 V 59.34 A 14.48,14.48 0 0 0 444.71,44.86 H 279.23 a 14.48,14.48 0 0 0 -14.48,14.48 z"
       style="fill:#fafafa"
       id="path59" />
    <path
       d="m 264.75,59.34 c 0,0 0,-0.55 0.06,-1.62 a 14.69,14.69 0 0 1 1.28,-4.58 14.45,14.45 0 0 1 1.84,-3 15.57,15.57 0 0 1 3.12,-2.88 14.65,14.65 0 0 1 4.5,-2.05 20.3,20.3 0 0 1 5.6,-0.5 l 67.24,-0.1 h 46.43 25.87 23.91 c 0.59,0 1.19,0 1.78,0.1 a 13.38,13.38 0 0 1 1.77,0.31 14.76,14.76 0 0 1 10.43,9.27 15.07,15.07 0 0 1 0.85,3.58 c 0.08,1.24 0.08,2.45 0.07,3.67 q 0,3.65 0,7.33 v 30.01 q 0,15.32 0,31.15 V 142 a 15.29,15.29 0 0 1 -0.6,4 14.71,14.71 0 0 1 -4.36,6.85 13.65,13.65 0 0 1 -3.42,2.29 14.62,14.62 0 0 1 -3.94,1.26 20.55,20.55 0 0 1 -3.91,0.2 h -3.85 l -7.68,-0.08 -15.2,-0.14 -29.75,-0.29 -56.41,-0.55 -51.3,-0.51 a 14.77,14.77 0 0 1 -10.74,-4.82 15,15 0 0 1 -3.86,-10.71 q 0,-11.27 0,-21.67 l 0.24,0.24 h -29.85 -0.49 l 0.35,-0.35 29.9,-29.89 v 0.1 c 0,-9.26 0.05,-16.39 0.06,-21.21 0,-2.4 0,-4.22 0,-5.46 0,-1.24 0,-1.85 0,-1.85 0,0 0,0.62 0,1.85 0,1.23 0,3.06 0,5.46 0,4.82 0,11.95 0.07,21.21 v 0 0 l -29.8,30 -0.15,-0.35 h 29.85 0.34 v 0.24 q 0,10.39 0,21.67 a 14.47,14.47 0 0 0 3.74,10.35 14.23,14.23 0 0 0 10.35,4.63 l 51.3,0.46 56.4,0.51 29.76,0.28 15.2,0.14 7.67,0.07 h 3.86 a 19.18,19.18 0 0 0 3.8,-0.2 14.22,14.22 0 0 0 11.19,-9.93 14.43,14.43 0 0 0 0.58,-3.86 c 0,-1.33 0,-2.66 0,-4 V 98.88 q 0,-15.31 0,-30.06 0,-3.69 0,-7.33 c 0,-1.22 0,-2.43 -0.08,-3.6 a 15,15 0 0 0 -0.8,-3.44 14.17,14.17 0 0 0 -10,-8.89 c -2.23,-0.59 -4.57,-0.36 -6.89,-0.41 h -46.3 -46.43 L 281.15,45 a 19.83,19.83 0 0 0 -5.55,0.47 14.43,14.43 0 0 0 -4.44,2 15.23,15.23 0 0 0 -3.1,2.82 14.05,14.05 0 0 0 -1.85,2.94 15.4,15.4 0 0 0 -1.46,6.11 z"
       style="fill:#263238"
       id="path61" />
    <path
       d="M 317.31,124.67 H 314 v 4.41 h -1.73 v -4.41 h -9.46 v -1.25 l 8.89,-11.11 h 1.92 L 305,123.14 h 7.28 v -3.88 H 314 v 3.88 h 3.35 z"
       id="path63" />
    <path
       d="m 318.89,120.69 c 0,-5.34 2.8,-8.52 6.68,-8.52 3.88,0 6.71,3.18 6.71,8.52 0,5.34 -2.83,8.53 -6.71,8.53 -3.88,0 -6.68,-3.22 -6.68,-8.53 z m 11.62,0 c 0,-4.48 -2,-6.94 -4.94,-6.94 -2.94,0 -4.93,2.46 -4.93,6.94 0,4.48 2,7 4.93,7 2.93,0 4.94,-2.52 4.94,-7 z"
       id="path65" />
    <path
       d="m 349,124.67 h -3.35 v 4.41 h -1.72 v -4.41 h -9.47 v -1.25 l 8.89,-11.11 h 1.92 l -8.58,10.83 H 344 v -3.88 h 1.68 v 3.88 H 349 Z"
       id="path67" />
    <path
       d="m 370.32,127.54 v 1.54 H 358.46 V 112.31 H 370 v 1.53 h -9.73 v 6 h 8.67 v 1.51 h -8.67 v 6.22 z"
       id="path69" />
    <path
       d="M 380.47,116.38 V 118 h -0.41 c -2.63,0 -4.24,1.68 -4.24,4.65 v 6.42 h -1.7 v -12.6 h 1.63 v 2.46 c 0.79,-1.66 2.39,-2.55 4.72,-2.55 z"
       id="path71" />
    <path
       d="M 389.88,116.38 V 118 h -0.41 c -2.63,0 -4.24,1.68 -4.24,4.65 v 6.42 h -1.7 v -12.6 h 1.63 v 2.46 c 0.84,-1.66 2.4,-2.55 4.72,-2.55 z"
       id="path73" />
    <path
       d="m 391.55,122.78 a 6.41,6.41 0 1 1 6.45,6.42 6.2,6.2 0 0 1 -6.45,-6.42 z m 11.09,0 a 4.69,4.69 0 1 0 -4.67,4.91 4.59,4.59 0 0 0 4.67,-4.91 z"
       id="path75" />
    <path
       d="M 414.19,116.38 V 118 h -0.41 c -2.64,0 -4.24,1.68 -4.24,4.65 v 6.42 h -1.7 v -12.6 h 1.63 v 2.46 c 0.79,-1.66 2.39,-2.55 4.72,-2.55 z"
       id="path77" />
    <path
       d="m 303.91,84.5 c 0,-7.87 6.13,-13.7 14.49,-13.7 8.36,0 14.5,5.79 14.5,13.7 0,7.91 -6.17,13.7 -14.5,13.7 -8.33,0 -14.49,-5.83 -14.49,-13.7 z m 22.78,0 a 8.29,8.29 0 1 0 -8.29,8.5 8.09,8.09 0 0 0 8.29,-8.5 z"
       id="path79" />
    <path
       d="m 335.58,87.56 c 0,-6.13 4.73,-10.48 11.2,-10.48 6.47,0 11.16,4.35 11.16,10.48 0,6.13 -4.69,10.44 -11.16,10.44 -6.47,0 -11.2,-4.31 -11.2,-10.44 z m 16.38,0 c 0,-3.51 -2.23,-5.63 -5.18,-5.63 -2.95,0 -5.23,2.12 -5.23,5.63 0,3.51 2.27,5.64 5.23,5.64 2.96,0 5.22,-2.12 5.22,-5.64 z"
       id="path81" />
    <path
       d="M 384,87.56 C 384,94 379.61,98 373.9,98 a 7.92,7.92 0 0 1 -6.13,-2.45 v 9.49 h -5.9 V 77.39 h 5.64 v 2.34 a 7.89,7.89 0 0 1 6.39,-2.65 c 5.71,0 10.1,4.09 10.1,10.48 z m -6,0 c 0,-3.51 -2.23,-5.63 -5.18,-5.63 -2.95,0 -5.18,2.12 -5.18,5.63 0,3.51 2.23,5.64 5.18,5.64 2.95,0 5.24,-2.12 5.24,-5.64 z"
       id="path83" />
    <path
       d="m 386,95.85 2,-4.24 a 13.88,13.88 0 0 0 7.08,2 c 2.72,0 3.74,-0.72 3.74,-1.85 0,-3.33 -12.29,0.07 -12.29,-8.06 0,-3.86 3.48,-6.59 9.42,-6.59 a 16.79,16.79 0 0 1 7.83,1.78 l -2,4.2 a 11.72,11.72 0 0 0 -5.86,-1.51 c -2.65,0 -3.79,0.83 -3.79,1.89 0,3.48 12.3,0.11 12.3,8.13 0,3.79 -3.52,6.47 -9.61,6.47 A 17.51,17.51 0 0 1 386,95.85 Z"
       id="path85" />
    <path
       d="m 407.19,94.6 a 3.64,3.64 0 0 1 7.26,0 3.64,3.64 0 0 1 -7.26,0 z m 0.11,-23.34 h 7 l -1.17,17.29 h -4.69 z"
       id="path87" />
  </g>
  <g
     id="freepik--Robot--inject-48"
     transform="translate(-37.38,-34.870643)">
    <path
       d="m 175.84,45.12 h 1.32 a 13.95,13.95 0 0 1 13.95,13.95 v 3.77 a 13.95,13.95 0 0 1 -13.95,13.95 h -1.32 z"
       transform="rotate(-44.79,183.49714,60.950666)"
       style="fill:#455a64"
       id="path90" />
    <path
       d="m 189.22,77.6 v 0 L 166.89,55.1 v 0 l 0.93,-0.93 a 13.9,13.9 0 0 1 9.85,-4.06 h 0.05 a 13.91,13.91 0 0 1 9.87,4.12 l 2.66,2.68 a 14,14 0 0 1 -0.07,19.77 z m -22.28,-22.51 22.28,22.44 0.92,-0.91 a 13.93,13.93 0 0 0 0.07,-19.69 l -2.66,-2.68 a 13.81,13.81 0 0 0 -9.83,-4.11 h -0.05 a 13.83,13.83 0 0 0 -9.81,4 z"
       style="fill:#263238"
       id="path92" />
    <path
       d="m 97.86,121.34 h 1.32 a 13.95,13.95 0 0 1 13.95,13.95 v 3.77 a 14,14 0 0 1 -14,14 h -1.27 z"
       transform="rotate(137.3,105.49714,137.16751)"
       style="fill:#455a64"
       id="path94" />
    <path
       d="m 111.43,148.25 h -0.58 a 13.91,13.91 0 0 1 -9.71,-4.48 L 98.59,141 a 14,14 0 0 1 0.79,-19.75 l 1,-0.91 v 0 l 21.49,23.29 v 0 l -1,0.9 a 13.86,13.86 0 0 1 -9.44,3.72 z m -12,-27 A 13.93,13.93 0 0 0 98.62,141 l 2.56,2.77 a 13.85,13.85 0 0 0 9.68,4.47 h 0.57 a 13.83,13.83 0 0 0 9.43,-3.69 l 1,-0.88 -21.44,-23.24 z"
       style="fill:#263238"
       id="path96" />
    <rect
       x="93.190002"
       y="89.529999"
       width="2.5"
       height="20.690001"
       transform="rotate(-51.11,94.441676,99.875824)"
       style="fill:#455a64"
       id="rect98" />
    <path
       d="m 88.22,88.3 a 5.1,5.1 0 1 1 -7.17,0.77 5.12,5.12 0 0 1 7.17,-0.77 z"
       style="fill:#263238"
       id="path100" />
    <rect
       x="102.48"
       y="70.93"
       width="99.18"
       height="74.839996"
       rx="16.5"
       transform="rotate(-44.8,152.06866,108.34727)"
       style="fill:#0ed3cf"
       id="rect102" />
    <polygon
       points="142.54,49.7 140.88,43.61 142.76,43.18 144.07,47.61 149.81,46.83 152.21,55.48 150.5,57.18 148.29,48.75 "
       style="fill:#455a64"
       id="polygon104" />
    <rect
       x="101.79"
       y="85.290001"
       width="85.129997"
       height="30.57"
       rx="13.96"
       transform="rotate(-44.8,144.34286,100.57898)"
       style="fill:#263238"
       id="rect106" />
    <path
       d="m 177.66,95 c 0,0 0.12,-0.16 0.37,-0.45 a 14.86,14.86 0 0 0 1.1,-1.33 16.84,16.84 0 0 0 2.93,-5.87 18.94,18.94 0 0 0 0.67,-4.7 18.57,18.57 0 0 0 -0.9,-5.56 17.22,17.22 0 0 0 -3.12,-5.65 l -1.18,-1.3 -1.28,-1.28 a 26.54,26.54 0 0 0 -2.76,-2.52 17.67,17.67 0 0 0 -7.22,-3.34 17.88,17.88 0 0 0 -8.56,0.5 17.5,17.5 0 0 0 -4.12,1.92 21.42,21.42 0 0 0 -3.62,3 l -7.05,7 -31.43,31.23 a 17.41,17.41 0 0 0 -5,10.11 18.06,18.06 0 0 0 0.18,5.59 17.88,17.88 0 0 0 3.44,7.41 c 0.59,0.69 1.17,1.36 1.83,2 a 30.29,30.29 0 0 0 3.94,3.62 17.35,17.35 0 0 0 19,0.87 18.61,18.61 0 0 0 2,-1.33 c 0.6,-0.51 1.19,-1 1.74,-1.57 l 3.29,-3.25 12,-11.85 17.37,-17.13 4.72,-4.57 1.24,-1.2 c 0.28,-0.26 0.44,-0.39 0.44,-0.39 0,0 -0.13,0.15 -0.4,0.43 l -1.21,1.24 -4.67,4.7 -17.26,17.25 -11.93,11.9 -3.27,3.26 c -0.56,0.55 -1.17,1.08 -1.77,1.6 a 19.85,19.85 0 0 1 -2,1.38 17.84,17.84 0 0 1 -19.52,-0.86 32.38,32.38 0 0 1 -4,-3.67 c -0.65,-0.63 -1.26,-1.34 -1.87,-2 a 20.56,20.56 0 0 1 -1.56,-2.33 17.65,17.65 0 0 1 -2,-5.3 18.52,18.52 0 0 1 -0.19,-5.76 17.85,17.85 0 0 1 5.11,-10.4 l 31.46,-31.21 7.07,-7 a 22,22 0 0 1 3.7,-3.07 17.72,17.72 0 0 1 20.36,0.93 26.56,26.56 0 0 1 2.79,2.57 l 1.27,1.29 1.21,1.27 a 17.6,17.6 0 0 1 3.11,5.82 18.15,18.15 0 0 1 0.86,5.65 19.29,19.29 0 0 1 -0.71,4.76 16.84,16.84 0 0 1 -3,5.88 12.48,12.48 0 0 1 -1.15,1.29 z"
       style="fill:#263238"
       id="path108" />
    <path
       d="m 125.76,126.43 a 78.3,78.3 0 0 1 -0.39,-9 75.7,75.7 0 0 1 0.14,-9 80.3,80.3 0 0 1 0.38,9 79.51,79.51 0 0 1 -0.13,9 z"
       style="fill:#ffffff"
       id="path110" />
    <path
       d="m 134.47,116.72 a 74.85,74.85 0 0 1 -9,0.67 81.18,81.18 0 0 1 -9,0.15 75.16,75.16 0 0 1 9,-0.67 81,81 0 0 1 9,-0.15 z"
       style="fill:#ffffff"
       id="path112" />
    <path
       d="m 161.4,90.11 a 78.76,78.76 0 0 1 -0.39,-9 75.37,75.37 0 0 1 0.14,-9 80.3,80.3 0 0 1 0.38,9 79.51,79.51 0 0 1 -0.13,9 z"
       style="fill:#ffffff"
       id="path114" />
    <path
       d="m 170.11,80.4 a 80.16,80.16 0 0 1 -9,0.67 76.89,76.89 0 0 1 -9,0.14 79.21,79.21 0 0 1 9,-0.66 78.18,78.18 0 0 1 9,-0.15 z"
       style="fill:#ffffff"
       id="path116" />
    <circle
       cx="140.64"
       cy="39.98"
       r="5.0999999"
       transform="rotate(-0.89,140.03965,39.715592)"
       style="fill:#263238"
       id="circle118" />
    <path
       d="m 156.51,156.68 a 5.09,5.09 0 0 1 -0.88,-0.73 c -0.55,-0.49 -1.32,-1.22 -2.27,-2.12 -1.89,-1.8 -4.49,-4.33 -7.32,-7.14 -2.83,-2.81 -5.38,-5.38 -7.2,-7.27 a 22.26,22.26 0 0 1 -2.81,-3.18 11.05,11.05 0 0 1 0.84,0.77 l 2.23,2.15 c 2,1.91 4.5,4.41 7.3,7.16 2.8,2.75 5.39,5.38 7.22,7.25 l 2.15,2.24 a 4.71,4.71 0 0 1 0.74,0.87 z"
       style="fill:#263238"
       id="path120" />
    <path
       d="m 199.82,113.05 a 4.79,4.79 0 0 1 -0.88,-0.73 c -0.54,-0.49 -1.31,-1.21 -2.26,-2.11 -1.9,-1.81 -4.49,-4.33 -7.33,-7.14 -2.84,-2.81 -5.38,-5.39 -7.19,-7.28 a 22.6,22.6 0 0 1 -2.81,-3.17 7.79,7.79 0 0 1 0.84,0.76 l 2.23,2.15 7.3,7.17 c 2.84,2.81 5.39,5.37 7.22,7.24 l 2.15,2.24 a 4.24,4.24 0 0 1 0.73,0.87 z"
       style="fill:#263238"
       id="path122" />
    <rect
       x="136.8"
       y="116.58"
       width="52.150002"
       height="5.7199998"
       transform="rotate(-45.46,162.88053,119.44394)"
       style="fill:#263238"
       id="rect124" />
    <path
       d="m 137.6,142.82 a 1.1,1.1 0 1 1 -1,-1.13 1.09,1.09 0 0 1 1,1.13 z"
       style="fill:#263238"
       id="path126" />
    <path
       d="m 145.94,151.63 a 1.1,1.1 0 0 1 -2.19,-0.09 1.1,1.1 0 0 1 2.19,0.09 z"
       style="fill:#263238"
       id="path128" />
    <path
       d="m 186.62,92.91 a 1.1,1.1 0 0 1 -1.14,1 1.1,1.1 0 1 1 0.09,-2.19 1.08,1.08 0 0 1 1.05,1.19 z"
       style="fill:#263238"
       id="path130" />
    <path
       d="m 195,101.72 a 1.0909285,1.0909285 0 1 1 -2.18,-0.09 1.0909285,1.0909285 0 1 1 2.18,0.09 z"
       style="fill:#263238"
       id="path132" />
    <path
       d="m 105.45,144 a 27.16,27.16 0 0 0 -2.31,-2.05 c -0.75,-0.59 -1.7,-1.23 -2.67,-2.09 a 10.37,10.37 0 0 1 -2.54,-3.34 11.3,11.3 0 0 1 -0.79,-7.48 8.89,8.89 0 0 1 0.82,-2.15 c 0.28,-0.47 0.44,-0.72 0.47,-0.7 a 22.92,22.92 0 0 0 -0.93,2.93 11.54,11.54 0 0 0 0.9,7.17 c 1.2,2.66 3.53,4.12 5,5.37 a 7,7 0 0 1 2.05,2.34 z"
       style="fill:#ffffff"
       id="path134" />
    <path
       d="m 148.92,63.53 c 0.1,0.1 -10.41,10.48 -23.47,23.17 -13.06,12.69 -23.75,22.91 -23.85,22.81 -0.1,-0.1 10.4,-10.51 23.48,-23.18 13.08,-12.67 23.74,-22.9 23.84,-22.8 z"
       style="fill:#ffffff"
       id="path136" />
    <path
       d="m 83.92,95.87 c 0,0.06 -0.52,0 -1.19,-0.45 a 4.1,4.1 0 0 1 -1.2,-5.6 c 0.44,-0.69 0.88,-0.95 0.92,-0.9 0.04,0.05 -0.28,0.41 -0.59,1.07 a 4.45,4.45 0 0 0 -0.36,2.76 4.4,4.4 0 0 0 1.5,2.38 c 0.51,0.48 1,0.66 0.92,0.74 z"
       style="fill:#ffffff"
       id="path138" />
    <path
       d="m 139.46,43.69 c 0,0.06 -0.57,0 -1.28,-0.51 a 4.16,4.16 0 0 1 -0.78,-6 c 0.56,-0.67 1.08,-0.88 1.11,-0.83 0.03,0.05 -0.37,0.38 -0.81,1 a 4.18,4.18 0 0 0 0.71,5.55 c 0.59,0.52 1.08,0.71 1.05,0.79 z"
       style="fill:#ffffff"
       id="path140" />
    <path
       d="m 177.32,51.71 a 22.58,22.58 0 0 0 -4.11,0.94 23.1,23.1 0 0 0 -3.63,2.13 6.58,6.58 0 0 1 3.42,-2.62 6.69,6.69 0 0 1 4.32,-0.45 z"
       style="fill:#ffffff"
       id="path142" />
    <path
       d="m 135.81,158.46 a 103.24,103.24 0 0 1 -7.47,-7.35 c -4,-4.16 -7.19,-7.61 -7.08,-7.71 0.11,-0.1 3.44,3.19 7.46,7.35 4.02,4.16 7.19,7.61 7.09,7.71 z"
       style="fill:#ffffff"
       id="path144" />
    <rect
       x="208.44"
       y="398.62"
       width="42.790001"
       height="60.650002"
       style="fill:#0ed3cf"
       id="rect146" />
    <path
       d="m 208.77,458.23 h 42.14 a 5.7,5.7 0 0 1 5.7,5.7 v 0.54 h -53.55 v -0.54 a 5.7,5.7 0 0 1 5.71,-5.7 z"
       style="fill:#263238"
       id="path148" />
    <rect
       x="198.17999"
       y="464.47"
       width="64.989998"
       height="9.8800001"
       style="fill:#0ed3cf"
       id="rect150" />
    <path
       d="m 251,452.61 c 0,0.14 -9.48,0.26 -21.18,0.26 -11.7,0 -21.19,-0.12 -21.19,-0.26 0,-0.14 9.48,-0.26 21.19,-0.26 11.71,0 21.18,0.11 21.18,0.26 z"
       style="fill:#263238"
       id="path152" />
    <path
       d="m 251,445.39 c 0,0.15 -9.48,0.26 -21.18,0.26 -11.7,0 -21.19,-0.11 -21.19,-0.26 0,-0.15 9.48,-0.26 21.19,-0.26 11.71,0 21.18,0.12 21.18,0.26 z"
       style="fill:#263238"
       id="path154" />
    <path
       d="m 251,438.31 c 0,0.14 -9.48,0.26 -21.18,0.26 -11.7,0 -21.19,-0.12 -21.19,-0.26 0,-0.14 9.48,-0.26 21.19,-0.26 11.71,0 21.18,0.12 21.18,0.26 z"
       style="fill:#263238"
       id="path156" />
    <path
       d="m 251,431.1 c 0,0.14 -9.48,0.26 -21.18,0.26 -11.7,0 -21.19,-0.12 -21.19,-0.26 0,-0.14 9.48,-0.26 21.19,-0.26 11.71,0 21.18,0.16 21.18,0.26 z"
       style="fill:#263238"
       id="path158" />
    <path
       d="m 251,424 c 0,0.15 -9.48,0.26 -21.18,0.26 -11.7,0 -21.19,-0.11 -21.19,-0.26 0,-0.15 9.48,-0.26 21.19,-0.26 11.71,0 21.18,0.13 21.18,0.26 z"
       style="fill:#263238"
       id="path160" />
    <path
       d="m 251,416.8 c 0,0.15 -9.48,0.26 -21.18,0.26 -11.7,0 -21.19,-0.11 -21.19,-0.26 0,-0.15 9.48,-0.26 21.19,-0.26 11.71,0 21.18,0.12 21.18,0.26 z"
       style="fill:#263238"
       id="path162" />
    <path
       d="m 251,409.72 c 0,0.14 -9.48,0.26 -21.18,0.26 -11.7,0 -21.19,-0.12 -21.19,-0.26 0,-0.14 9.48,-0.26 21.19,-0.26 11.71,0 21.18,0.11 21.18,0.26 z"
       style="fill:#263238"
       id="path164" />
    <path
       d="m 251,402.51 c 0,0.14 -9.48,0.26 -21.18,0.26 -11.7,0 -21.19,-0.12 -21.19,-0.26 0,-0.14 9.48,-0.26 21.19,-0.26 11.71,0 21.18,0.11 21.18,0.26 z"
       style="fill:#263238"
       id="path166" />
    <g
       style="opacity:0.3"
       id="g170">
      <polygon
         points="251.02,399.71 208.06,399.71 208.44,407.07 251.02,405.89 "
         id="polygon168" />
    </g>
    <rect
       x="275.45999"
       y="398.62"
       width="42.790001"
       height="60.650002"
       style="fill:#0ed3cf"
       id="rect172" />
    <path
       d="m 275.79,458.23 h 42.14 a 5.7,5.7 0 0 1 5.7,5.7 v 0.54 h -53.55 v -0.54 a 5.7,5.7 0 0 1 5.71,-5.7 z"
       style="fill:#263238"
       id="path174" />
    <rect
       x="265.20001"
       y="464.47"
       width="64.989998"
       height="9.8800001"
       style="fill:#0ed3cf"
       id="rect176" />
    <path
       d="m 318,452.61 c 0,0.14 -9.48,0.26 -21.18,0.26 -11.7,0 -21.19,-0.12 -21.19,-0.26 0,-0.14 9.48,-0.26 21.19,-0.26 11.71,0 21.18,0.11 21.18,0.26 z"
       style="fill:#263238"
       id="path178" />
    <path
       d="m 318,445.39 c 0,0.15 -9.48,0.26 -21.18,0.26 -11.7,0 -21.19,-0.11 -21.19,-0.26 0,-0.15 9.48,-0.26 21.19,-0.26 11.71,0 21.18,0.12 21.18,0.26 z"
       style="fill:#263238"
       id="path180" />
    <path
       d="m 318,438.31 c 0,0.14 -9.48,0.26 -21.18,0.26 -11.7,0 -21.19,-0.12 -21.19,-0.26 0,-0.14 9.48,-0.26 21.19,-0.26 11.71,0 21.18,0.12 21.18,0.26 z"
       style="fill:#263238"
       id="path182" />
    <path
       d="m 318,431.1 c 0,0.14 -9.48,0.26 -21.18,0.26 -11.7,0 -21.19,-0.12 -21.19,-0.26 0,-0.14 9.48,-0.26 21.19,-0.26 11.71,0 21.18,0.16 21.18,0.26 z"
       style="fill:#263238"
       id="path184" />
    <path
       d="m 318,424 c 0,0.15 -9.48,0.26 -21.18,0.26 -11.7,0 -21.19,-0.11 -21.19,-0.26 0,-0.15 9.48,-0.26 21.19,-0.26 11.71,0 21.18,0.13 21.18,0.26 z"
       style="fill:#263238"
       id="path186" />
    <path
       d="m 318,416.8 c 0,0.15 -9.48,0.26 -21.18,0.26 -11.7,0 -21.19,-0.11 -21.19,-0.26 0,-0.15 9.48,-0.26 21.19,-0.26 11.71,0 21.18,0.12 21.18,0.26 z"
       style="fill:#263238"
       id="path188" />
    <path
       d="m 318,409.72 c 0,0.14 -9.48,0.26 -21.18,0.26 -11.7,0 -21.19,-0.12 -21.19,-0.26 0,-0.14 9.48,-0.26 21.19,-0.26 11.71,0 21.18,0.11 21.18,0.26 z"
       style="fill:#263238"
       id="path190" />
    <path
       d="m 318,402.51 c 0,0.14 -9.48,0.26 -21.18,0.26 -11.7,0 -21.19,-0.12 -21.19,-0.26 0,-0.14 9.48,-0.26 21.19,-0.26 11.71,0 21.18,0.11 21.18,0.26 z"
       style="fill:#263238"
       id="path192" />
    <g
       style="opacity:0.3"
       id="g196">
      <polygon
         points="318.04,399.71 275.08,399.71 275.46,407.07 318.04,405.89 "
         id="polygon194" />
    </g>
    <path
       d="m 328.17,223.65 h 4.32 a 1.83,1.83 0 0 1 1.83,1.83 v 17.68 h -8 v -17.67 a 1.83,1.83 0 0 1 1.83,-1.83 z"
       transform="rotate(-75.83,330.33109,233.40787)"
       style="fill:#0ed3cf"
       id="path198" />
    <g
       style="opacity:0.3"
       id="g202">
      <path
         d="m 328.17,223.65 h 4.32 a 1.83,1.83 0 0 1 1.83,1.83 v 17.68 h -8 v -17.67 a 1.83,1.83 0 0 1 1.83,-1.83 z"
         transform="rotate(-75.83,330.33109,233.40787)"
         id="path200" />
    </g>
    <path
       d="m 323.82,237.7 h 5.94 a 3,3 0 0 1 3,3 v 16.47 h -12 v -16.43 a 3,3 0 0 1 3.06,-3.04 z"
       transform="rotate(-75.83,326.78874,247.44993)"
       style="fill:#0ed3cf"
       id="path204" />
    <rect
       x="324.34"
       y="237.02"
       width="20.389999"
       height="7.6999998"
       transform="rotate(-75.83,334.53924,240.86269)"
       style="fill:#0ed3cf"
       id="rect206" />
    <path
       d="m 345.68,310.42 c 0,0 31.95,-1.3 29.31,-31.92 -2,-23.45 -36.91,-23.66 -36.91,-23.66 L 347,235.35 c 0,0 40.76,3.55 48.81,33.23 9.09,33.54 -11.93,60.89 -50.13,60.25 z"
       style="fill:#0ed3cf"
       id="path208" />
    <rect
       x="334.32001"
       y="230.94"
       width="12.44"
       height="27.68"
       transform="rotate(12.46,340.59889,244.84764)"
       style="fill:#263238"
       id="rect210" />
    <path
       d="m 344.16,256.78 c 0,0.23 -2.76,-0.24 -6.05,-1 a 35.59,35.59 0 0 1 -5.91,-1.64 37.84,37.84 0 0 1 6,1.13 c 1.65,0.38 3.14,0.74 4.21,1 l 1.27,0.34 a 2.12,2.12 0 0 1 0.48,0.17 z"
       style="fill:#455a64"
       id="path212" />
    <path
       d="m 345.23,251.91 c 0,0.23 -2.75,-0.24 -6.05,-1 a 34.18,34.18 0 0 1 -5.9,-1.64 38.26,38.26 0 0 1 6,1.13 c 1.65,0.38 3.13,0.74 4.21,1 l 1.26,0.34 a 1.7,1.7 0 0 1 0.48,0.17 z"
       style="fill:#455a64"
       id="path214" />
    <path
       d="m 346.52,247 c 0,0.24 -2.76,-0.23 -6,-1 a 35.59,35.59 0 0 1 -5.91,-1.64 38.05,38.05 0 0 1 6,1.13 c 1.64,0.37 3.13,0.73 4.2,1 l 1.27,0.33 z"
       style="fill:#455a64"
       id="path216" />
    <path
       d="m 347.38,242.18 c 0,0.23 -2.75,-0.24 -6,-1 a 34.47,34.47 0 0 1 -5.91,-1.64 38,38 0 0 1 6,1.13 c 1.65,0.38 3.13,0.74 4.21,1 l 1.26,0.34 a 1.7,1.7 0 0 1 0.44,0.17 z"
       style="fill:#455a64"
       id="path218" />
    <path
       d="m 348.63,237.62 c 0,0.24 -2.75,-0.23 -6,-1 a 35.59,35.59 0 0 1 -5.91,-1.64 38,38 0 0 1 6,1.13 c 1.65,0.37 3.14,0.73 4.21,1 l 1.27,0.33 a 3.68,3.68 0 0 1 0.43,0.18 z"
       style="fill:#455a64"
       id="path220" />
    <path
       d="m 352.66,328.63 a 14.23,14.23 0 0 1 -0.65,-2.7 c -0.32,-1.68 -0.7,-4 -1,-6.61 -0.3,-2.61 -0.45,-5 -0.51,-6.67 a 13.76,13.76 0 0 1 0,-2.78 14.56,14.56 0 0 1 0.34,2.75 c 0.15,1.7 0.36,4.05 0.66,6.64 0.3,2.59 0.61,4.92 0.84,6.61 a 15.65,15.65 0 0 1 0.32,2.76 z"
       style="fill:#263238"
       id="path222" />
    <path
       d="m 362.59,327.08 a 93.17,93.17 0 0 1 -2.91,-9.54 95,95 0 0 1 -2.41,-9.69 96,96 0 0 1 2.91,9.55 97.71,97.71 0 0 1 2.41,9.68 z"
       style="fill:#263238"
       id="path224" />
    <path
       d="m 375.94,322.3 a 18.68,18.68 0 0 1 -1.71,-2.65 c -1.08,-1.8 -2.41,-4 -3.89,-6.52 l -3.92,-6.5 a 20.32,20.32 0 0 1 -1.54,-2.75 17.48,17.48 0 0 1 1.85,2.55 c 1.08,1.62 2.53,3.89 4,6.43 1.47,2.54 2.85,4.89 3.77,6.61 a 18.81,18.81 0 0 1 1.44,2.83 z"
       style="fill:#263238"
       id="path226" />
    <path
       d="m 387.17,313.3 c -0.1,0.11 -4.07,-3 -8.88,-7 -4.81,-4 -8.64,-7.32 -8.55,-7.43 0.09,-0.11 4.07,3 8.88,7 4.81,4 8.64,7.31 8.55,7.43 z"
       style="fill:#263238"
       id="path228" />
    <path
       d="m 394.4,301 c -0.06,0.14 -4.76,-1.7 -10.51,-4.09 -5.75,-2.39 -10.36,-4.44 -10.3,-4.57 0.06,-0.13 4.76,1.7 10.5,4.09 5.74,2.39 10.36,4.39 10.31,4.57 z"
       style="fill:#263238"
       id="path230" />
    <path
       d="m 397.94,287.63 a 24.32,24.32 0 0 1 -3.37,-0.32 l -8.08,-1 -8.09,-1 a 20.82,20.82 0 0 1 -3.34,-0.51 20.89,20.89 0 0 1 3.38,0.14 c 2.08,0.16 4.95,0.44 8.11,0.83 3.16,0.39 6,0.8 8.08,1.15 a 20,20 0 0 1 3.31,0.71 z"
       style="fill:#263238"
       id="path232" />
    <path
       d="m 396.29,273.81 a 17.51,17.51 0 0 1 -3,1 c -1.89,0.55 -4.53,1.23 -7.47,1.85 -2.94,0.62 -5.63,1.06 -7.58,1.32 a 17.3,17.3 0 0 1 -3.17,0.27 22.63,22.63 0 0 1 3.12,-0.64 c 1.93,-0.35 4.59,-0.84 7.52,-1.46 2.93,-0.62 5.57,-1.24 7.48,-1.7 a 22.07,22.07 0 0 1 3.1,-0.64 z"
       style="fill:#263238"
       id="path234" />
    <path
       d="m 392.27,260.55 c 0.06,0.13 -4.22,2.42 -9.57,5.12 -5.35,2.7 -9.74,4.78 -9.81,4.65 -0.07,-0.13 4.22,-2.42 9.57,-5.12 5.35,-2.7 9.74,-4.77 9.81,-4.65 z"
       style="fill:#263238"
       id="path236" />
    <path
       d="m 384,249.8 c 0.09,0.11 -3.47,3.33 -8,7.2 -4.53,3.87 -8.2,6.91 -8.29,6.8 -0.09,-0.11 3.46,-3.33 8,-7.2 4.54,-3.87 8.23,-6.91 8.29,-6.8 z"
       style="fill:#263238"
       id="path238" />
    <path
       d="m 370.13,241.82 c 0.12,0.07 -2.13,4 -5,8.83 a 97,97 0 0 1 -5.48,8.57 c -0.12,-0.07 2.13,-4 5,-8.84 a 100,100 0 0 1 5.48,-8.56 z"
       style="fill:#263238"
       id="path240" />
    <path
       d="m 357.68,236.82 a 102.11,102.11 0 0 1 -3,9.86 c -1.78,5.4 -3.34,9.74 -3.47,9.7 a 98.49,98.49 0 0 1 3,-9.87 99.79,99.79 0 0 1 3.47,-9.69 z"
       style="fill:#263238"
       id="path242" />
    <g
       style="opacity:0.3"
       id="g246">
      <path
         d="m 372.68,294.18 a 24.63,24.63 0 0 1 -11.58,11.88 36.5,36.5 0 0 1 -7.84,3.06 c 6.11,3.26 14.09,1.31 19.43,-3.1 5.34,-4.41 8.16,-11.41 8.35,-18.34 a 21.73,21.73 0 0 0 -1.73,-9.6 c -1.36,-3 -3.61,-6.12 -6.58,-7.5 a 18.45,18.45 0 0 1 1.86,5.25 30.68,30.68 0 0 1 -1.91,18.35 z"
         id="path244" />
    </g>
    <path
       d="m 137.83,348.12 a 8.6,8.6 0 0 1 1,1.11 c 0.62,0.73 1.46,1.82 2.46,3.21 a 70.45,70.45 0 0 1 6.61,11.56 68.72,68.72 0 0 1 4.29,12.63 c 0.39,1.66 0.65,3 0.79,4 a 9.26,9.26 0 0 1 0.17,1.48 7.49,7.49 0 0 1 -0.37,-1.44 c -0.2,-0.93 -0.52,-2.27 -0.94,-3.91 a 82,82 0 0 0 -4.41,-12.51 81.16,81.16 0 0 0 -6.43,-11.6 c -0.95,-1.41 -1.74,-2.53 -2.31,-3.3 a 7.57,7.57 0 0 1 -0.86,-1.23 z"
       style="fill:#263238"
       id="path248" />
    <path
       d="m 133.58,344.58 c 0.1,-0.11 0.57,0.15 1.06,0.59 0.49,0.44 0.8,0.87 0.71,1 -0.09,0.13 -0.57,-0.15 -1.06,-0.59 -0.49,-0.44 -0.8,-0.9 -0.71,-1 z"
       style="fill:#263238"
       id="path250" />
    <path
       d="m 134.56,341.64 c 0.12,-0.07 0.61,0.52 1.1,1.34 0.49,0.82 0.78,1.53 0.66,1.6 -0.12,0.07 -0.62,-0.52 -1.11,-1.34 -0.49,-0.82 -0.78,-1.53 -0.65,-1.6 z"
       style="fill:#263238"
       id="path252" />
    <path
       d="m 153.06,382.72 a 5.24,5.24 0 0 1 0.15,-0.8 q 0.21,-0.85 0.54,-2.28 c 0.47,-2 1.14,-4.84 1.91,-8.39 1.54,-7.1 3.41,-17 4.78,-28 0.74,-5.48 1,-10.8 2.28,-15.49 a 23.67,23.67 0 0 1 2.68,-6.31 18.86,18.86 0 0 1 11.72,-8.23 15,15 0 0 1 2.32,-0.35 4.61,4.61 0 0 1 0.82,0 6.05,6.05 0 0 1 -0.81,0.12 21.6,21.6 0 0 0 -2.29,0.44 19.47,19.47 0 0 0 -7.54,3.86 18.55,18.55 0 0 0 -3.85,4.4 23.25,23.25 0 0 0 -2.59,6.22 c -1.24,4.62 -1.49,9.93 -2.22,15.43 -1.38,11 -3.31,20.89 -4.94,28 -0.82,3.55 -1.55,6.4 -2.07,8.36 q -0.4,1.41 -0.63,2.25 a 4.88,4.88 0 0 1 -0.26,0.77 z"
       style="fill:#455a64"
       id="path254" />
    <path
       d="m 154.25,303.42 a 16,16 0 0 0 2.55,3.72 16.81,16.81 0 0 0 9.61,4.68 36.36,36.36 0 0 0 10.92,-0.46 l 3.29,-0.58 a 6.67,6.67 0 0 1 1.22,-0.16 5.25,5.25 0 0 1 -1.18,0.36 c -0.77,0.19 -1.88,0.46 -3.27,0.74 a 32.92,32.92 0 0 1 -11,0.61 16.48,16.48 0 0 1 -9.81,-4.94 10.79,10.79 0 0 1 -1.88,-2.81 4,4 0 0 1 -0.45,-1.16 z"
       style="fill:#263238"
       id="path256" />
    <path
       d="m 150.45,300.26 c 0.1,-0.1 0.58,0.21 1.06,0.7 0.48,0.49 0.8,1 0.7,1.06 -0.1,0.06 -0.58,-0.21 -1.06,-0.69 -0.48,-0.48 -0.8,-0.97 -0.7,-1.07 z"
       style="fill:#263238"
       id="path258" />
    <path
       d="m 151.58,298.52 c 0.13,-0.08 0.58,0.43 1,1.13 0.42,0.7 0.69,1.34 0.56,1.41 -0.13,0.07 -0.57,-0.43 -1,-1.13 -0.43,-0.7 -0.68,-1.34 -0.56,-1.41 z"
       style="fill:#263238"
       id="path260" />
    <path
       d="m 154.71,298.29 c 0.15,0 0.17,0.61 0.06,1.32 -0.11,0.71 -0.32,1.25 -0.46,1.23 -0.14,-0.02 -0.17,-0.61 -0.06,-1.32 0.11,-0.71 0.32,-1.25 0.46,-1.23 z"
       style="fill:#263238"
       id="path262" />
    <path
       d="m 164.13,337.34 a 10.35,10.35 0 0 1 -0.08,1.78 c -0.09,1.15 -0.26,2.8 -0.5,4.83 -0.47,4.08 -1.3,9.68 -2.55,15.81 -1.25,6.13 -2.69,11.62 -3.84,15.56 -0.58,2 -1.08,3.55 -1.44,4.63 a 12.65,12.65 0 0 1 -0.62,1.67 13.26,13.26 0 0 1 0.42,-1.73 c 0.33,-1.18 0.76,-2.76 1.28,-4.67 1.06,-4 2.44,-9.44 3.69,-15.56 1.25,-6.12 2.13,-11.7 2.7,-15.75 0.27,-2 0.49,-3.59 0.65,-4.81 a 14.78,14.78 0 0 1 0.29,-1.76 z"
       style="fill:#455a64"
       id="path264" />
    <path
       d="m 181.86,314.19 c 0,0.1 -1.43,0.11 -3.64,0.69 a 18.05,18.05 0 0 0 -12.54,11.58 c -0.76,2.15 -0.88,3.59 -1,3.57 a 2.79,2.79 0 0 1 0,-1 15,15 0 0 1 0.58,-2.68 17.37,17.37 0 0 1 12.8,-11.82 15.36,15.36 0 0 1 2.72,-0.37 3.48,3.48 0 0 1 1.08,0.03 z"
       style="fill:#455a64"
       id="path266" />
    <path
       d="m 157.8,382.51 a 5.24,5.24 0 0 1 0,-0.75 c 0,-0.49 0.12,-1.22 0.25,-2.15 a 20,20 0 0 1 2.37,-7.57 c 0.84,-1.47 2,-2.91 2.94,-4.61 a 9.67,9.67 0 0 0 1,-2.78 11.45,11.45 0 0 0 0.08,-3.16 c -0.16,-2.17 -0.79,-4.51 -0.3,-7 a 8.54,8.54 0 0 1 1.6,-3.39 c 0.73,-1 1.58,-2 2.25,-3 a 6.36,6.36 0 0 0 1.12,-3.41 14.83,14.83 0 0 0 -0.48,-3.57 21.11,21.11 0 0 1 -0.58,-7 19.9,19.9 0 0 1 10.54,-15.89 17.52,17.52 0 0 1 2,-0.88 4.26,4.26 0 0 1 0.72,-0.23 3.85,3.85 0 0 1 -0.68,0.32 c -0.45,0.21 -1.11,0.51 -1.92,1 a 20.47,20.47 0 0 0 -5.95,5.08 19.71,19.71 0 0 0 -4.21,10.67 20.85,20.85 0 0 0 0.6,6.82 15.28,15.28 0 0 1 0.5,3.69 6.87,6.87 0 0 1 -1.21,3.68 c -0.7,1.11 -1.55,2.05 -2.26,3.05 a 7.83,7.83 0 0 0 -1.52,3.19 c -0.47,2.31 0.12,4.62 0.28,6.84 a 12,12 0 0 1 -0.11,3.29 10.21,10.21 0 0 1 -1.11,2.9 c -1,1.74 -2.16,3.16 -3,4.59 a 20.78,20.78 0 0 0 -2.48,7.42 c -0.15,0.88 -0.26,1.59 -0.35,2.12 a 3.76,3.76 0 0 1 -0.09,0.73 z"
       style="fill:#455a64"
       id="path268" />
    <path
       d="m 183,324.55 a 9.45,9.45 0 0 0 -2.46,0.35 9.77,9.77 0 0 0 -5.17,4.13 c -1.6,2.39 -2.31,5.82 -2.69,9.6 a 121.14,121.14 0 0 1 -1.79,12.37 200.58,200.58 0 0 1 -6,21.82 c -0.9,2.75 -1.65,5 -2.19,6.49 -0.25,0.72 -0.46,1.3 -0.62,1.75 a 2.49,2.49 0 0 1 -0.26,0.6 A 4.25,4.25 0 0 1 162,381 c 0.13,-0.46 0.31,-1.05 0.53,-1.78 l 2,-6.54 c 1.69,-5.53 4,-13.18 5.8,-21.82 0.88,-4.31 1.46,-8.46 1.86,-12.27 0.4,-3.81 1.17,-7.3 2.87,-9.74 a 9.74,9.74 0 0 1 5.42,-4.12 6.25,6.25 0 0 1 1.86,-0.23 4.13,4.13 0 0 1 0.66,0.05 z"
       style="fill:#e0e0e0"
       id="path270" />
    <path
       d="m 146.29,378.93 h 19.37 c 0,0 -11.75,93.29 -76.61,93 l 0.83,-18.19 c 0,0 44.12,-2.74 56.41,-74.81 z"
       style="fill:#0ed3cf"
       id="path272" />
    <path
       d="M 70.7,442.54 H 75 a 1.83,1.83 0 0 1 1.83,1.83 V 462 h -8 v -17.63 a 1.83,1.83 0 0 1 1.87,-1.83 z"
       transform="rotate(-88.99,72.869123,452.30494)"
       style="fill:#0ed3cf"
       id="path274" />
    <g
       style="opacity:0.3"
       id="g278">
      <path
         d="M 70.7,442.54 H 75 a 1.83,1.83 0 0 1 1.83,1.83 V 462 h -8 v -17.63 a 1.83,1.83 0 0 1 1.87,-1.83 z"
         transform="rotate(-88.99,72.869123,452.30494)"
         id="path276" />
    </g>
    <path
       d="m 69.64,457 h 5.94 a 3,3 0 0 1 3,3 v 16.47 h -12 V 460.06 A 3,3 0 0 1 69.64,457 Z"
       transform="matrix(0.02,-1,1,0.02,-395.38,531.17)"
       style="fill:#0ed3cf"
       id="path280" />
    <rect
       x="68.459999"
       y="454.75"
       width="20.389999"
       height="7.6999998"
       transform="rotate(-88.99,78.665744,458.61036)"
       style="fill:#0ed3cf"
       id="rect282" />
    <rect
       x="79.169998"
       y="447.20001"
       width="12.44"
       height="27.68"
       transform="rotate(-0.7,85.588103,460.53754)"
       style="fill:#263238"
       id="rect284" />
    <path
       d="m 91.64,471.9 c 0,0.23 -2.74,0.4 -6.11,0.42 a 34.37,34.37 0 0 1 -6.13,-0.26 38.67,38.67 0 0 1 6.12,-0.27 c 1.69,0 3.22,0 4.33,0 h 1.31 a 2.44,2.44 0 0 1 0.48,0.11 z"
       style="fill:#455a64"
       id="path286" />
    <path
       d="m 91.58,466.92 c 0,0.23 -2.74,0.39 -6.11,0.41 a 35,35 0 0 1 -6.13,-0.25 38.67,38.67 0 0 1 6.12,-0.27 c 1.69,0 3.22,0 4.33,0 h 1.31 a 1.75,1.75 0 0 1 0.48,0.11 z"
       style="fill:#455a64"
       id="path288" />
    <path
       d="m 91.72,461.89 c 0,0.23 -2.73,0.39 -6.11,0.41 a 34.92,34.92 0 0 1 -6.12,-0.25 38.67,38.67 0 0 1 6.12,-0.27 c 1.69,0 3.22,0 4.32,0 h 1.31 a 2,2 0 0 1 0.48,0.11 z"
       style="fill:#455a64"
       id="path290" />
    <path
       d="m 91.46,457 c 0,0.23 -2.74,0.4 -6.12,0.42 a 34.29,34.29 0 0 1 -6.12,-0.26 38.67,38.67 0 0 1 6.12,-0.27 c 1.69,0 3.22,0 4.33,0 h 1.31 a 2.57,2.57 0 0 1 0.48,0.11 z"
       style="fill:#455a64"
       id="path292" />
    <path
       d="m 91.64,452.23 c 0,0.23 -2.74,0.4 -6.11,0.42 a 36.2,36.2 0 0 1 -6.13,-0.25 36,36 0 0 1 6.12,-0.27 c 1.69,0 3.22,0 4.33,0 h 1.31 a 2.44,2.44 0 0 1 0.48,0.1 z"
       style="fill:#455a64"
       id="path294" />
    <path
       d="m 98.44,471 c 0,0 0,0.16 0.06,0.5 v 0.58 l -0.17,-0.56 a 83.2,83.2 0 0 1 -1.91,-9.16 c -0.43,-2.69 -0.72,-5.13 -0.89,-6.91 a 14.66,14.66 0 0 1 -0.13,-2.89 18.89,18.89 0 0 1 0.5,2.85 c 0.25,1.76 0.6,4.19 1,6.87 0.69,4.34 1.4,8 1.55,9.2 h -0.16 c 0.09,-0.34 0.12,-0.48 0.15,-0.48 z"
       style="fill:#263238"
       id="path296" />
    <path
       d="m 107.64,469.21 a 92.86,92.86 0 0 1 -3.22,-9.42 92.86,92.86 0 0 1 -2.73,-9.57 92.86,92.86 0 0 1 3.22,9.42 92.86,92.86 0 0 1 2.73,9.57 z"
       style="fill:#263238"
       id="path298" />
    <path
       d="m 118.51,464.62 a 98.81,98.81 0 0 1 -4.78,-9.06 c -2.5,-5.08 -4.43,-9.24 -4.3,-9.3 a 99.8,99.8 0 0 1 4.77,9.07 c 2.51,5.07 4.43,9.23 4.31,9.29 z"
       style="fill:#263238"
       id="path300" />
    <path
       d="m 128.14,457.42 a 91.87,91.87 0 0 1 -6.18,-7.91 98.59,98.59 0 0 1 -5.77,-8.23 96.34,96.34 0 0 1 6.19,7.92 c 3.29,4.46 5.87,8.14 5.76,8.22 z"
       style="fill:#263238"
       id="path302" />
    <path
       d="m 136.55,449.44 a 93.69,93.69 0 0 1 -7.2,-6.85 96.19,96.19 0 0 1 -6.82,-7.22 94.54,94.54 0 0 1 7.19,6.85 97.73,97.73 0 0 1 6.83,7.22 z"
       style="fill:#263238"
       id="path304" />
    <path
       d="m 143.48,439.86 a 14.64,14.64 0 0 1 -2.51,-1.34 l -5.92,-3.46 -5.91,-3.45 a 15.52,15.52 0 0 1 -2.41,-1.53 15.05,15.05 0 0 1 2.58,1.21 c 1.56,0.81 3.69,2 6,3.32 2.31,1.32 4.37,2.64 5.84,3.6 a 15.72,15.72 0 0 1 2.33,1.65 z"
       style="fill:#263238"
       id="path306" />
    <path
       d="m 148.17,430.16 a 13.82,13.82 0 0 1 -2.43,-1.09 c -1.47,-0.72 -3.51,-1.71 -5.77,-2.76 -2.26,-1.05 -4.34,-1.95 -5.84,-2.61 a 15.48,15.48 0 0 1 -2.41,-1.14 11.93,11.93 0 0 1 2.54,0.8 c 1.54,0.57 3.65,1.43 5.93,2.48 2.28,1.05 4.29,2.1 5.72,2.9 a 13.26,13.26 0 0 1 2.26,1.42 z"
       style="fill:#263238"
       id="path308" />
    <path
       d="M 153.77,420.78 A 13.93,13.93 0 0 1 151,420.32 c -1.7,-0.37 -4,-0.94 -6.57,-1.68 -2.57,-0.74 -4.82,-1.51 -6.45,-2.11 a 14.17,14.17 0 0 1 -2.59,-1.09 16.24,16.24 0 0 1 2.71,0.74 c 1.65,0.51 3.94,1.22 6.47,2 2.53,0.78 4.84,1.36 6.51,1.82 a 16.1,16.1 0 0 1 2.69,0.78 z"
       style="fill:#263238"
       id="path310" />
    <path
       d="m 156.76,411.32 a 84.29,84.29 0 0 1 -9.25,-0.92 84.45,84.45 0 0 1 -9.18,-1.43 84.06,84.06 0 0 1 9.25,0.92 79,79 0 0 1 9.18,1.43 z"
       style="fill:#263238"
       id="path312" />
    <path
       d="m 159.94,402.07 a 12.64,12.64 0 0 1 -2.69,-0.08 c -1.66,-0.12 -3.95,-0.32 -6.47,-0.57 -2.52,-0.25 -4.81,-0.51 -6.45,-0.73 a 13.79,13.79 0 0 1 -2.66,-0.45 14.26,14.26 0 0 1 2.7,0.09 c 1.66,0.12 3.94,0.32 6.46,0.57 2.52,0.25 4.8,0.51 6.45,0.72 a 14.83,14.83 0 0 1 2.66,0.45 z"
       style="fill:#263238"
       id="path314" />
    <path
       d="m 162.39,393.11 a 92.12,92.12 0 0 1 -9.64,0.56 86.39,86.39 0 0 1 -9.65,0 92.12,92.12 0 0 1 9.64,-0.56 89.44,89.44 0 0 1 9.65,0 z"
       style="fill:#263238"
       id="path316" />
    <path
       d="m 163.4,385.79 a 13.17,13.17 0 0 1 -2.64,0.41 c -1.64,0.17 -3.91,0.31 -6.42,0.32 -2.51,0.01 -4.79,-0.11 -6.43,-0.26 a 12.81,12.81 0 0 1 -2.64,-0.38 15,15 0 0 1 2.66,0 c 1.64,0.06 3.9,0.13 6.4,0.11 2.5,-0.02 4.77,-0.1 6.4,-0.17 a 15,15 0 0 1 2.67,-0.03 z"
       style="fill:#263238"
       id="path318" />
    <path
       d="m 147.13,381.7 a 0.72,0.72 0 0 1 0,0.25 v 0.74 c 0,0.65 0,1.61 -0.07,2.84 a 74,74 0 0 1 -1.23,10.39 78.32,78.32 0 0 1 -4.35,14.89 77.44,77.44 0 0 1 -22,30.58 78.86,78.86 0 0 1 -12.76,8.83 73.1,73.1 0 0 1 -9.47,4.45 c -1.14,0.46 -2.06,0.74 -2.67,1 l -0.7,0.23 a 0.8,0.8 0 0 1 -0.25,0.06 0.7,0.7 0 0 1 0.23,-0.11 l 0.68,-0.28 c 0.6,-0.25 1.51,-0.56 2.64,-1 a 82.14,82.14 0 0 0 9.36,-4.58 79.89,79.89 0 0 0 39,-54 81.57,81.57 0 0 0 1.39,-10.33 c 0.11,-1.22 0.11,-2.18 0.16,-2.83 0,-0.3 0,-0.54 0,-0.74 a 0.87,0.87 0 0 1 0.04,-0.39 z"
       style="fill:#ffffff"
       id="path320" />
    <path
       d="m 236.92,273 c 0,0 -10.72,-14.51 -35.53,-12.36 0,0 25.25,-19.4 10.39,-39.33 0,0 31.89,9.42 32.25,-30.44 0,0 5.8,37 35.88,26.46 0,0 2.14,29.36 22.95,23.93 -10.07,9.9 -19.86,18.63 -17.86,31.29"
       style="fill:#0ed3cf"
       id="path322" />
    <g
       style="opacity:0.8"
       id="g326">
      <path
         d="m 236.92,273 c 0,0 -10.72,-14.51 -35.53,-12.36 0,0 25.25,-19.4 10.39,-39.33 0,0 31.89,9.42 32.25,-30.44 0,0 5.8,37 35.88,26.46 0,0 2.14,29.36 22.95,23.93 -10.07,9.9 -19.86,18.63 -17.86,31.29"
         style="fill:#ffffff"
         id="path324" />
    </g>
    <path
       d="m 236.92,273 c 0,0 -0.25,-16.92 -20.18,-15.19 0,0 18.53,-10.69 6.6,-26.7 0,0 25.62,7.57 25.91,-24.45 0,0 4.65,29.69 28.82,21.25 0,0 -2.89,21.54 13.84,17.17 -8.09,8 -11.37,17 -9.77,27.2"
       style="fill:#0ed3cf"
       id="path328" />
    <g
       style="opacity:0.6"
       id="g332">
      <path
         d="m 236.92,273 c 0,0 -0.25,-16.92 -20.18,-15.19 0,0 18.53,-10.69 6.6,-26.7 0,0 25.62,7.57 25.91,-24.45 0,0 4.65,29.69 28.82,21.25 0,0 -2.89,21.54 13.84,17.17 -8.09,8 -11.37,17 -9.77,27.2"
         style="fill:#ffffff"
         id="path330" />
    </g>
    <path
       d="m 269.65,160.76 a 5.13,5.13 0 0 1 -0.24,0.63 l -0.79,1.76 c -0.35,0.76 -0.77,1.69 -1.22,2.8 -0.45,1.11 -1,2.33 -1.51,3.74 -0.51,1.41 -1.13,2.93 -1.68,4.6 -0.55,1.67 -1.12,3.46 -1.7,5.35 -1.09,3.8 -2.13,8 -2.95,12.52 -0.82,4.52 -1.3,8.82 -1.6,12.76 -0.12,2 -0.25,3.85 -0.27,5.61 -0.02,1.76 -0.05,3.4 0,4.89 0.05,1.49 0.08,2.85 0.12,4 0.04,1.15 0.1,2.21 0.17,3 0.07,0.79 0.09,1.43 0.12,1.92 a 3,3 0 0 1 0,0.68 5.34,5.34 0 0 1 -0.11,-0.67 q -0.07,-0.74 -0.21,-1.92 c -0.1,-0.83 -0.2,-1.85 -0.26,-3 -0.06,-1.15 -0.18,-2.55 -0.19,-4 -0.01,-1.45 -0.08,-3.14 0,-4.91 0.08,-1.77 0.12,-3.65 0.22,-5.63 a 113.18,113.18 0 0 1 4.57,-25.39 c 0.59,-1.89 1.14,-3.7 1.75,-5.35 0.61,-1.65 1.18,-3.2 1.74,-4.59 0.56,-1.39 1.12,-2.64 1.6,-3.73 0.48,-1.09 0.92,-2 1.3,-2.77 l 0.87,-1.72 a 3,3 0 0 1 0.27,-0.58 z"
       style="fill:#0ed3cf"
       id="path334" />
    <path
       d="m 198.07,153.89 a 33,33 0 0 0 -6,-4.49 33.26,33.26 0 0 0 -7.06,-2.52 6.79,6.79 0 0 1 2.23,0.22 18.55,18.55 0 0 1 5.08,1.84 18.9,18.9 0 0 1 4.34,3.21 6.55,6.55 0 0 1 1.41,1.74 z"
       style="fill:#0ed3cf"
       id="path336" />
    <path
       d="m 205.75,197.42 a 2.34,2.34 0 0 1 0.42,0.4 l 1.11,1.19 c 1,1 2.31,2.59 3.91,4.56 1.6,1.97 3.43,4.37 5.36,7.11 1.93,2.74 3.92,5.86 5.86,9.2 1.94,3.34 3.62,6.64 5.06,9.67 1.44,3.03 2.6,5.82 3.5,8.19 0.9,2.37 1.59,4.31 2,5.66 q 0.28,0.94 0.48,1.56 a 2.26,2.26 0 0 1 0.13,0.56 2.26,2.26 0 0 1 -0.23,-0.53 l -0.58,-1.52 c -0.47,-1.33 -1.2,-3.25 -2.15,-5.59 -0.95,-2.34 -2.16,-5.1 -3.59,-8.12 -1.43,-3.02 -3.15,-6.27 -5.08,-9.62 -1.93,-3.35 -3.92,-6.42 -5.8,-9.18 -1.88,-2.76 -3.69,-5.18 -5.26,-7.16 -1.57,-1.98 -2.85,-3.58 -3.77,-4.66 l -1,-1.25 a 2.44,2.44 0 0 1 -0.37,-0.47 z"
       style="fill:#0ed3cf"
       id="path338" />
    <path
       d="m 274.51,202.53 a 1.72,1.72 0 0 1 -0.21,0.46 l -0.67,1.25 c -0.31,0.54 -0.67,1.2 -1.06,2 -0.39,0.8 -0.87,1.66 -1.32,2.67 -1,2 -2,4.42 -3,7.16 a 78.08,78.08 0 0 0 -4.16,18.47 c -0.27,2.9 -0.39,5.53 -0.38,7.74 0,1.1 0,2.1 0.05,3 0.05,0.9 0.06,1.63 0.1,2.25 0.04,0.62 0.05,1 0.07,1.42 a 1.37,1.37 0 0 1 0,0.5 2.25,2.25 0 0 1 -0.09,-0.49 c -0.05,-0.38 -0.1,-0.85 -0.17,-1.42 -0.07,-0.57 -0.15,-1.37 -0.19,-2.25 -0.04,-0.88 -0.13,-1.88 -0.13,-3 a 71,71 0 0 1 0.28,-7.79 72.75,72.75 0 0 1 4.18,-18.58 70.42,70.42 0 0 1 3.09,-7.16 c 0.47,-1 1,-1.87 1.4,-2.65 0.4,-0.78 0.8,-1.43 1.13,-2 0.33,-0.57 0.56,-0.88 0.76,-1.21 a 2,2 0 0 1 0.32,-0.37 z"
       style="fill:#0ed3cf"
       id="path340" />
    <path
       d="m 294.15,206.41 c 0.05,0.06 -0.83,0.71 -2.16,1.87 a 36.84,36.84 0 0 0 -8.52,10.7 26.43,26.43 0 0 1 -1.35,2.53 11.4,11.4 0 0 1 1,-2.7 30.94,30.94 0 0 1 3.68,-5.9 30.11,30.11 0 0 1 4.93,-4.91 11.07,11.07 0 0 1 2.42,-1.59 z"
       style="fill:#0ed3cf"
       id="path342" />
    <path
       d="m 210.65,231.91 a 11.93,11.93 0 0 1 2.44,1.53 34.6,34.6 0 0 1 5.16,4.68 33.84,33.84 0 0 1 4.12,5.61 11.66,11.66 0 0 1 1.27,2.59 27.69,27.69 0 0 1 -1.58,-2.4 45,45 0 0 0 -4.2,-5.46 45.57,45.57 0 0 0 -5,-4.73 22.61,22.61 0 0 1 -2.21,-1.82 z"
       style="fill:#0ed3cf"
       id="path344" />
    <path
       d="m 205.58,222.61 c -0.08,0.14 -2.12,-1 -4.88,-1.7 -2.76,-0.7 -5.09,-0.71 -5.09,-0.87 a 14.5,14.5 0 0 1 10,2.57 z"
       style="fill:#0ed3cf"
       id="path346" />
    <path
       d="m 185,191.31 a 6.85,6.85 0 0 1 0.66,-1.66 l -0.91,-1.38 1.9,-2 1.41,0.85 a 7.26,7.26 0 0 1 1.64,-0.71 l 0.34,-1.61 2.73,-0.05 0.39,1.61 a 7,7 0 0 1 1.66,0.65 l 1.38,-0.9 2,1.9 -0.86,1.41 a 6.31,6.31 0 0 1 0.71,1.64 l 1.62,0.33 v 2.74 l -1.6,0.39 a 6.78,6.78 0 0 1 -0.66,1.65 l 0.91,1.39 -1.9,2 -1.42,-0.86 a 6.25,6.25 0 0 1 -1.63,0.71 L 193,201 h -2.73 l -0.39,-1.6 a 6.85,6.85 0 0 1 -1.66,-0.66 l -1.38,0.9 -2,-1.9 0.86,-1.41 a 6.25,6.25 0 0 1 -0.71,-1.63 l -1.62,-0.34 v -2.73 l 1.6,-0.39 z m 3.6,1.55 a 2.93,2.93 0 1 0 2.88,-3 2.93,2.93 0 0 0 -2.87,3 z"
       style="fill:#0ed3cf;fill-rule:evenodd"
       id="path348" />
    <path
       d="m 299.57,265.2 a 5.17,5.17 0 0 1 0.48,-1.22 l -0.67,-1 1.41,-1.45 1,0.63 a 5.13,5.13 0 0 1 1.2,-0.52 l 0.25,-1.19 h 2 l 0.29,1.19 a 4.77,4.77 0 0 1 1.22,0.48 l 1,-0.67 1.45,1.41 -0.63,1 a 5,5 0 0 1 0.52,1.2 l 1.19,0.25 v 2 l -1.19,0.29 a 5.17,5.17 0 0 1 -0.48,1.22 l 0.66,1 -1.4,1.45 -1,-0.63 a 5,5 0 0 1 -1.21,0.52 l -0.24,1.19 h -2 l -0.29,-1.18 a 5.17,5.17 0 0 1 -1.22,-0.48 l -1,0.66 -1.41,-1.35 0.63,-1 a 5,5 0 0 1 -0.52,-1.21 l -1.19,-0.25 v -2 l 1.19,-0.29 z m 2.66,1.14 a 2.1602835,2.1602835 0 1 0 4.32,-0.07 2.1602835,2.1602835 0 1 0 -4.32,0.07 z"
       style="fill:#455a64;fill-rule:evenodd"
       id="path350" />
    <rect
       x="274.17999"
       y="182.10001"
       width="10.43"
       height="4.7199998"
       transform="rotate(-64.59,279.38866,184.45954)"
       style="fill:#e0e0e0"
       id="rect352" />
    <path
       d="m 275,188.16 a 10.74,10.74 0 0 1 1.23,0.49 c 0.76,0.32 1.83,0.78 3.11,1.36 l -0.25,0.09 c 1.12,-2.45 2.67,-5.79 4.41,-9.45 -0.11,-0.31 0.15,0.43 0.12,0.35 h -0.06 -0.07 l -0.14,-0.06 -0.28,-0.14 -0.56,-0.26 -1.08,-0.52 -2.06,-1 0.33,-0.11 c -1.29,2.68 -2.45,5 -3.28,6.64 -0.4,0.76 -0.73,1.41 -1,1.95 a 4.56,4.56 0 0 1 -0.41,0.72 3.13,3.13 0 0 1 0.26,-0.68 c 0.23,-0.54 0.52,-1.19 0.85,-1.95 0.75,-1.69 1.83,-4.1 3.14,-6.89 l 0.11,-0.23 0.22,0.11 2.07,1 1.09,0.51 0.55,0.26 0.28,0.14 0.14,0.06 h 0.07 0.07 c 0,-0.08 0.23,0.66 0.12,0.35 -1.74,3.66 -3.34,7 -4.54,9.39 l -0.08,0.17 -0.17,-0.09 c -1.34,-0.66 -2.41,-1.21 -3.12,-1.59 A 7.68,7.68 0 0 1 275,188.16 Z"
       style="fill:#263238"
       id="path354" />
    <path
       d="m 283.35,175.75 a 4.34,4.34 0 0 0 -5.79,2.06 l 7.86,3.74 a 4.35,4.35 0 0 0 -2.07,-5.8 z"
       style="fill:#e0e0e0"
       id="path356" />
    <path
       d="m 283.35,175.75 a 1.2,1.2 0 0 1 0.49,0.18 4.22,4.22 0 0 1 1.12,0.9 4.28,4.28 0 0 1 1,2 4.45,4.45 0 0 1 -0.32,2.83 l -0.09,0.22 -0.23,-0.1 -3.93,-1.85 -3.94,-1.93 -0.22,-0.1 0.11,-0.22 a 4.54,4.54 0 0 1 2,-2 4.4,4.4 0 0 1 2.17,-0.48 3.86,3.86 0 0 1 1.4,0.3 c 0.31,0.14 0.46,0.24 0.44,0.26 a 8.45,8.45 0 0 0 -1.84,-0.27 4.22,4.22 0 0 0 -2,0.55 4.16,4.16 0 0 0 -1.76,1.89 l -0.11,-0.32 3.94,1.85 3.92,1.88 -0.32,0.12 a 4.19,4.19 0 0 0 0.36,-2.56 4.35,4.35 0 0 0 -0.83,-1.88 8,8 0 0 0 -1.36,-1.27 z"
       style="fill:#263238"
       id="path358" />
    <path
       d="m 283.45,178.24 a 2.74,2.74 0 0 0 -0.86,-2.8"
       style="fill:#e0e0e0"
       id="path360" />
    <path
       d="m 282.59,175.44 c 0.07,-0.13 0.8,0.27 1.08,1.2 0.28,0.93 -0.09,1.66 -0.22,1.6 -0.13,-0.06 0,-0.71 -0.27,-1.45 -0.27,-0.74 -0.68,-1.23 -0.59,-1.35 z"
       style="fill:#263238"
       id="path362" />
    <path
       d="m 278.65,180.07 a 9,9 0 0 1 2.28,0.94 9.17,9.17 0 0 1 2.23,1.09 4.68,4.68 0 0 1 -2.44,-0.62 c -1.28,-0.57 -2.15,-1.3 -2.07,-1.41 z"
       style="fill:#263238"
       id="path364" />
    <path
       d="m 278.12,181.17 a 9.71,9.71 0 0 1 2.29,1 9.17,9.17 0 0 1 2.22,1.08 4.52,4.52 0 0 1 -2.44,-0.61 c -1.27,-0.64 -2.19,-1.35 -2.07,-1.47 z"
       style="fill:#263238"
       id="path366" />
    <path
       d="m 277.6,182.28 a 9,9 0 0 1 2.28,0.94 9.41,9.41 0 0 1 2.23,1.09 4.72,4.72 0 0 1 -2.44,-0.61 c -1.28,-0.58 -2.15,-1.31 -2.07,-1.42 z"
       style="fill:#263238"
       id="path368" />
    <path
       d="m 277.07,183.38 a 9.71,9.71 0 0 1 2.29,1 9.17,9.17 0 0 1 2.22,1.08 4.52,4.52 0 0 1 -2.44,-0.61 c -1.27,-0.62 -2.14,-1.35 -2.07,-1.47 z"
       style="fill:#263238"
       id="path370" />
    <path
       d="m 276.54,184.49 a 9.26,9.26 0 0 1 2.29,0.94 9.87,9.87 0 0 1 2.23,1.09 7.15,7.15 0 0 1 -4.52,-2 z"
       style="fill:#263238"
       id="path372" />
    <path
       d="m 276,185.6 a 9,9 0 0 1 2.29,0.94 9.21,9.21 0 0 1 2.22,1.09 7.23,7.23 0 0 1 -4.51,-2 z"
       style="fill:#263238"
       id="path374" />
    <path
       d="m 275.49,186.7 a 9.54,9.54 0 0 1 2.29,1 9.17,9.17 0 0 1 2.22,1.08 4.48,4.48 0 0 1 -2.43,-0.61 c -1.28,-0.62 -2.16,-1.35 -2.08,-1.47 z"
       style="fill:#263238"
       id="path376" />
    <rect
       x="171.84"
       y="261.89999"
       width="10.43"
       height="4.7199998"
       transform="rotate(-24.4,177.04511,264.25042)"
       style="fill:#e0e0e0"
       id="rect378" />
    <path
       d="m 182.77,264.25 a 11.2,11.2 0 0 1 -0.62,-1.17 c -0.37,-0.73 -0.89,-1.77 -1.5,-3 l 0.25,0.09 c -2.44,1.15 -5.78,2.7 -9.46,4.37 -0.12,0.31 0.15,-0.42 0.13,-0.34 v 0 0 0 0.07 l 0.06,0.14 0.13,0.28 0.25,0.56 c 0.17,0.37 0.33,0.73 0.5,1.09 l 0.93,2.09 -0.33,-0.12 c 2.73,-1.22 5.09,-2.23 6.8,-3 l 2,-0.84 a 5,5 0 0 1 0.78,-0.29 3,3 0 0 1 -0.63,0.36 l -1.91,0.94 c -1.66,0.8 -4,1.95 -6.85,3.24 l -0.23,0.1 -0.1,-0.23 c -0.31,-0.66 -0.62,-1.36 -1,-2.07 -0.17,-0.36 -0.33,-0.73 -0.5,-1.1 l -0.25,-0.55 -0.13,-0.29 -0.07,-0.14 v -0.07 -0.05 0 l 0.13,-0.34 c 3.69,-1.68 7.05,-3.17 9.53,-4.24 l 0.17,-0.08 0.08,0.17 c 0.59,1.38 1.05,2.49 1.35,3.24 a 5.89,5.89 0 0 1 0.49,1.18 z"
       style="fill:#263238"
       id="path380" />
    <path
       d="m 168.41,268.36 a 4.35,4.35 0 0 0 5.76,2.17 l -3.6,-7.93 a 4.34,4.34 0 0 0 -2.16,5.76 z"
       style="fill:#e0e0e0"
       id="path382" />
    <path
       d="m 168.41,268.36 c 0,0 -0.12,-0.14 -0.26,-0.44 a 4.09,4.09 0 0 1 -0.27,-1.42 4.34,4.34 0 0 1 0.52,-2.16 4.59,4.59 0 0 1 2.07,-2 l 0.22,-0.1 0.1,0.22 c 0.57,1.23 1.18,2.56 1.82,4 0.64,1.44 1.22,2.73 1.78,4 l 0.1,0.22 -0.22,0.1 a 4.52,4.52 0 0 1 -2.84,0.26 4.28,4.28 0 0 1 -2,-1 3.9,3.9 0 0 1 -0.88,-1.13 c -0.15,-0.31 -0.2,-0.48 -0.17,-0.49 a 7.9,7.9 0 0 0 1.23,1.4 4.26,4.26 0 0 0 4.43,0.55 l -0.12,0.32 -1.82,-4 c -0.62,-1.4 -1.22,-2.73 -1.78,-4 l 0.32,0.12 a 4.24,4.24 0 0 0 -2.5,3.69 8.47,8.47 0 0 0 0.27,1.86 z"
       style="fill:#263238"
       id="path384" />
    <path
       d="m 169.94,266.4 a 2.74,2.74 0 0 0 -1.15,2.69"
       style="fill:#e0e0e0"
       id="path386" />
    <path
       d="m 168.79,269.09 c -0.13,0.06 -0.44,-0.73 -0.06,-1.61 0.38,-0.88 1.16,-1.21 1.21,-1.08 0.05,0.13 -0.43,0.56 -0.73,1.28 -0.3,0.72 -0.27,1.38 -0.42,1.41 z"
       style="fill:#263238"
       id="path388" />
    <path
       d="m 174.79,268.1 a 9,9 0 0 1 -1.14,-2.19 9.38,9.38 0 0 1 -1,-2.27 7.13,7.13 0 0 1 2.14,4.46 z"
       style="fill:#263238"
       id="path390" />
    <path
       d="m 175.9,267.6 a 9.58,9.58 0 0 1 -1.14,-2.2 9.79,9.79 0 0 1 -1,-2.26 c 0.11,-0.09 0.86,0.77 1.46,2 a 4.5,4.5 0 0 1 0.68,2.46 z"
       style="fill:#263238"
       id="path392" />
    <path
       d="m 177,267.09 a 9.19,9.19 0 0 1 -1.14,-2.19 9.38,9.38 0 0 1 -1,-2.27 7.13,7.13 0 0 1 2.14,4.46 z"
       style="fill:#263238"
       id="path394" />
    <path
       d="m 178.13,266.59 a 9.85,9.85 0 0 1 -1.14,-2.2 9.57,9.57 0 0 1 -1,-2.27 4.67,4.67 0 0 1 1.46,2 4.53,4.53 0 0 1 0.68,2.47 z"
       style="fill:#263238"
       id="path396" />
    <path
       d="m 179.25,266.08 a 9.14,9.14 0 0 1 -1.14,-2.2 9.4,9.4 0 0 1 -1,-2.26 7.13,7.13 0 0 1 2.14,4.46 z"
       style="fill:#263238"
       id="path398" />
    <path
       d="m 180.36,265.57 a 9.37,9.37 0 0 1 -1.14,-2.19 9.57,9.57 0 0 1 -1,-2.27 4.67,4.67 0 0 1 1.46,2 4.52,4.52 0 0 1 0.68,2.46 z"
       style="fill:#263238"
       id="path400" />
    <path
       d="m 181.48,265.07 a 40.24,40.24 0 0 1 -2.14,-4.46 c 0.11,-0.09 0.87,0.77 1.47,2 a 4.61,4.61 0 0 1 0.67,2.46 z"
       style="fill:#263238"
       id="path402" />
    <path
       d="m 201.52,142.38 c 0,0 12.11,12 15.13,19.43 2.87,7.11 4.77,13.73 4.77,13.73 0,0 3.12,-5.46 6.63,0 3.51,5.46 20.1,71.77 22.83,96.73 h 10.57 c 0,0 -4.92,-41.73 -7.26,-46.41 -2.34,-4.68 -4.3,-6.24 -4.3,-6.24 0,0 -2.73,-17.56 -4.68,-20.29 a 13.16,13.16 0 0 0 -4.29,-3.9 c 0,0 -3.51,-19.11 -8.58,-23 -5.07,-3.89 -9,-1.95 -9,-1.95 0,0 -3.2,-20.48 -21.82,-28.1 z"
       style="fill:#0ed3cf"
       id="path404" />
    <path
       d="m 300.67,231 a 55.81,55.81 0 0 0 -7,2.38 58.26,58.26 0 0 0 -6.41,3.72 6.81,6.81 0 0 1 1.62,-1.48 24.09,24.09 0 0 1 9.62,-4.37 7.24,7.24 0 0 1 2.17,-0.25 z"
       style="fill:#455a64"
       id="path406" />
    <path
       d="M 300.26,228.86 A 72.81,72.81 0 0 0 293.2,232 c -3.73,2.06 -6.28,4.45 -6.39,4.32 a 8.14,8.14 0 0 1 1.6,-1.63 28,28 0 0 1 4.54,-3.14 26.89,26.89 0 0 1 5.07,-2.18 7.88,7.88 0 0 1 2.24,-0.51 z"
       style="fill:#455a64"
       id="path408" />
    <path
       d="m 298.21,234 c 0,0.16 -2.2,0.19 -4.79,0.94 -2.59,0.75 -4.49,1.85 -4.57,1.72 a 13.27,13.27 0 0 1 9.36,-2.66 z"
       style="fill:#455a64"
       id="path410" />
    <path
       d="m 274.88,272.17 c -1.77,-14 2.83,-30.42 14,-38.28 l 2.66,2.17 c 0,0 -13.91,8.28 -12.89,36.21"
       style="fill:#263238"
       id="path412" />
    <path
       d="m 217.41,252 a 33.58,33.58 0 0 0 -5.37,2.39 34.87,34.87 0 0 0 -4.56,3.71 13.8,13.8 0 0 1 9.93,-6.1 z"
       style="fill:#455a64"
       id="path414" />
    <path
       d="m 217.13,250.76 a 51.19,51.19 0 0 1 -5.44,2.1 50.87,50.87 0 0 1 -5.5,2 24.23,24.23 0 0 1 5.32,-2.46 23.76,23.76 0 0 1 5.62,-1.64 z"
       style="fill:#455a64"
       id="path416" />
    <path
       d="m 247.94,275.62 -4.84,-1.26 a 10.74,10.74 0 0 0 -3.65,-11.13 9.21,9.21 0 0 1 -5.31,7.13 7.86,7.86 0 0 1 -6.65,-0.42 6.93,6.93 0 0 1 -3.63,-4.72 7.86,7.86 0 0 1 3.87,-8 9.8,9.8 0 0 1 3.66,-1.24 3.51,3.51 0 0 0 -0.36,-0.29 13.38,13.38 0 0 0 -15.08,-0.41 l -2.82,-4.13 a 18.33,18.33 0 0 1 20.94,0.56 14.92,14.92 0 0 1 4.35,5.22 15.83,15.83 0 0 1 9.52,18.72 z M 233,260.83 a 5.35,5.35 0 0 0 -2.76,0.67 2.93,2.93 0 0 0 -1.52,2.75 2.08,2.08 0 0 0 1.09,1.29 2.93,2.93 0 0 0 2.37,0.2 4.5,4.5 0 0 0 2.32,-4.58 v -0.2 a 8.44,8.44 0 0 0 -1.5,-0.13 z"
       style="fill:#263238"
       id="path418" />
    <path
       d="m 207.34,182.76 a 7.84,7.84 0 0 1 1.34,0.71 c 0.85,0.48 2,1.24 3.48,2.23 a 61.07,61.07 0 0 1 4.85,3.78 62,62 0 0 1 10.07,11.14 58.32,58.32 0 0 1 3.27,5.19 c 0.85,1.53 1.49,2.79 1.88,3.69 a 7.7,7.7 0 0 1 0.57,1.4 8,8 0 0 1 -0.75,-1.31 c -0.45,-0.87 -1.13,-2.1 -2,-3.59 -0.87,-1.49 -2,-3.24 -3.34,-5.11 a 67.21,67.21 0 0 0 -10,-11 C 215,188.33 213.35,187 212,186 c -1.35,-1 -2.56,-1.83 -3.38,-2.36 a 8.61,8.61 0 0 1 -1.28,-0.88 z"
       style="fill:#0ed3cf"
       id="path420" />
    <path
       d="m 190.42,294.18 h 0.85 v 50.51 h -0.85 a 9,9 0 0 1 -9,-9 v -32.55 a 9,9 0 0 1 9,-8.96 z"
       style="fill:#263238"
       id="path422" />
    <path
       d="m 335.87,294.18 h 0.94 a 8.88,8.88 0 0 1 8.88,8.88 v 32.76 a 8.88,8.88 0 0 1 -8.88,8.88 h -0.94 z"
       style="fill:#263238"
       id="path424" />
    <rect
       x="188.69"
       y="284.32001"
       width="149.39"
       height="109.99"
       rx="14.12"
       style="fill:#0ed3cf"
       id="rect426" />
    <path
       d="m 282.39,296 a 34.23,34.23 0 0 0 -34.23,34.23 h 68.47 A 34.23,34.23 0 0 0 282.39,296 Z"
       style="fill:#ffffff"
       id="path428" />
    <path
       d="m 310,328.58 c 1.44,0 2.74,0 3.68,0 a 6.73,6.73 0 0 1 1.53,0.1 7.86,7.86 0 0 1 -1.52,0.11 c -1,0 -2.25,0 -3.69,0 h -3.68 -1.12 a 1.75,1.75 0 0 1 -0.41,0 1.26,1.26 0 0 1 0.41,0 l 1.12,-0.05 z"
       style="fill:#e0e0e0"
       id="path430" />
    <path
       d="m 307.58,318.23 c 2.6,-1.24 4.76,-2.11 4.83,-2 0.07,0.11 -2,1.24 -4.62,2.41 a 34.84,34.84 0 0 1 -4.83,2 35,35 0 0 1 4.62,-2.41 z"
       style="fill:#e0e0e0"
       id="path432" />
    <path
       d="m 301.16,309.77 c 1.9,-2.16 3.54,-3.82 3.67,-3.71 0.13,0.11 -1.35,1.93 -3.29,4.05 a 33.89,33.89 0 0 1 -3.67,3.7 34.86,34.86 0 0 1 3.29,-4.04 z"
       style="fill:#e0e0e0"
       id="path434" />
    <path
       d="m 292,304.36 a 23,23 0 0 1 2.05,-4.79 c 0.16,0.06 -0.54,2.28 -1.57,5 a 35.67,35.67 0 0 1 -2.06,4.79 34.19,34.19 0 0 1 1.58,-5 z"
       style="fill:#e0e0e0"
       id="path436" />
    <path
       d="m 281.51,302.58 c 0,-2.88 0.08,-5.21 0.25,-5.21 0.17,0 0.28,2.33 0.26,5.21 a 33.85,33.85 0 0 1 -0.26,5.21 33.18,33.18 0 0 1 -0.25,-5.21 z"
       style="fill:#e0e0e0"
       id="path438" />
    <path
       d="m 271.05,304.54 c -1,-2.69 -1.74,-4.91 -1.58,-5 0.16,-0.09 1.08,2.08 2,4.79 a 32.38,32.38 0 0 1 1.58,5 34.94,34.94 0 0 1 -2,-4.79 z"
       style="fill:#e0e0e0"
       id="path440" />
    <path
       d="m 262,310.11 c -1.94,-2.12 -3.42,-3.93 -3.29,-4.05 0.13,-0.12 1.77,1.55 3.67,3.71 a 34.86,34.86 0 0 1 3.29,4 33.89,33.89 0 0 1 -3.67,-3.66 z"
       style="fill:#e0e0e0"
       id="path442" />
    <path
       d="m 255.73,318.7 c -2.63,-1.18 -4.7,-2.26 -4.63,-2.42 0.07,-0.16 2.24,0.72 4.84,2 a 35.13,35.13 0 0 1 4.62,2.41 34.91,34.91 0 0 1 -4.83,-1.99 z"
       style="fill:#e0e0e0"
       id="path444" />
    <path
       d="m 253.55,328.83 c -1.44,0 -2.74,0 -3.69,0 a 7.86,7.86 0 0 1 -1.52,-0.11 6.73,6.73 0 0 1 1.53,-0.1 c 0.94,0 2.24,0 3.68,0 l 3.68,0.06 1.12,0.05 a 1.17,1.17 0 0 1 0.4,0 1.6,1.6 0 0 1 -0.4,0 h -1.12 z"
       style="fill:#e0e0e0"
       id="path446" />
    <path
       d="m 225.31,302 a 4.55,4.55 0 1 1 -4.55,-4.54 4.55,4.55 0 0 1 4.55,4.54 z"
       style="fill:#ffffff"
       id="path448" />
    <path
       d="m 225.31,315.7 a 4.55,4.55 0 1 1 -4.55,-4.54 4.55,4.55 0 0 1 4.55,4.54 z"
       style="fill:#455a64"
       id="path450" />
    <path
       d="m 311.43,384.82 c 0,0 0,-0.29 0,-0.85 0,-0.56 0,-1.39 0,-2.45 0,-2.17 0,-5.33 -0.05,-9.38 0,-8.13 -0.06,-19.85 -0.1,-34.3 l 0.19,0.19 -93.17,0.07 v 0 l 0.26,-0.26 c 0,16.57 0,32.46 0,47 l -0.25,-0.24 66.92,0.11 19.3,0.07 h 5.16 1.34 0.46 -0.43 -1.31 -5.11 l -19.25,0.07 -67.08,0.12 H 218 v -0.25 c 0,-14.52 0,-30.41 0,-47 v -0.26 h 0.27 l 93.17,0.07 h 0.2 v 0.19 c -0.05,14.5 -0.08,26.26 -0.11,34.41 0,4 0,7.19 0,9.34 0,1.05 0,1.86 0,2.42 0,0.56 -0.1,0.93 -0.1,0.93 z"
       style="fill:#263238"
       id="path452" />
    <path
       d="m 204.1,394.09 h 118.57 v 0.59 a 6.23,6.23 0 0 1 -6.23,6.23 h -106.1 a 6.23,6.23 0 0 1 -6.23,-6.23 v -0.59 z"
       style="fill:#263238"
       id="path454" />
    <g
       style="opacity:0.3"
       id="g458">
      <path
         d="m 301.47,344.43 a 2.81,2.81 0 0 0 1.93,3 3.11,3.11 0 0 0 3.39,-1.24 3.49,3.49 0 0 0 0,-3.67 3.48,3.48 0 0 1 -0.78,2.35 2.56,2.56 0 0 1 -2.26,0.88 2,2 0 0 1 -1.69,-1.64"
         id="path456" />
    </g>
    <path
       d="m 306.81,343.32 a 2.77,2.77 0 1 1 -2.76,-2.76 2.76,2.76 0 0 1 2.76,2.76 z"
       style="fill:#e0e0e0"
       id="path460" />
    <path
       d="m 306.81,343.32 a 5.24,5.24 0 0 1 -0.18,-0.65 2.78,2.78 0 0 0 -1,-1.4 2.61,2.61 0 0 0 -2.42,-0.32 2.53,2.53 0 0 0 0,4.74 2.61,2.61 0 0 0 2.42,-0.32 2.78,2.78 0 0 0 1,-1.4 6,6 0 0 1 0.18,-0.65 c 0,0 0.09,0.25 0,0.7 a 2.7,2.7 0 0 1 -1,1.64 2.92,2.92 0 0 1 -2.81,0.48 3,3 0 0 1 0,-5.64 2.92,2.92 0 0 1 2.81,0.48 2.7,2.7 0 0 1 1,1.64 c 0.09,0.45 0.03,0.7 0,0.7 z"
       style="fill:#263238"
       id="path462" />
    <path
       d="m 305.32,342.14 c 0.05,0.14 -0.6,0.48 -1.21,1.12 -0.61,0.64 -0.93,1.29 -1.07,1.24 -0.14,-0.05 0,-0.87 0.7,-1.61 0.7,-0.74 1.55,-0.89 1.58,-0.75 z"
       style="fill:#263238"
       id="path464" />
    <path
       d="m 305.32,344.18 c -0.12,0.08 -0.58,-0.42 -1.26,-0.87 -0.68,-0.45 -1.32,-0.7 -1.29,-0.85 0.03,-0.15 0.81,-0.11 1.58,0.42 0.77,0.53 1.09,1.24 0.97,1.3 z"
       style="fill:#263238"
       id="path466" />
    <g
       style="opacity:0.3"
       id="g470">
      <path
         d="m 302.76,378.63 a 2.83,2.83 0 0 0 1.94,3 3.11,3.11 0 0 0 3.39,-1.24 3.49,3.49 0 0 0 0.05,-3.66 3.43,3.43 0 0 1 -0.79,2.34 2.55,2.55 0 0 1 -2.25,0.88 2,2 0 0 1 -1.7,-1.63"
         id="path468" />
    </g>
    <circle
       cx="305.35001"
       cy="377.51001"
       r="2.76"
       style="fill:#e0e0e0"
       id="circle472" />
    <path
       d="m 308.11,377.51 c -0.05,0 -0.06,-0.24 -0.19,-0.65 a 2.74,2.74 0 0 0 -1,-1.4 2.62,2.62 0 0 0 -2.42,-0.32 2.54,2.54 0 1 0 2.42,4.42 2.7,2.7 0 0 0 1,-1.4 c 0.13,-0.4 0.14,-0.65 0.19,-0.65 0.05,0 0.09,0.25 0,0.7 a 2.74,2.74 0 0 1 -1,1.65 2.93,2.93 0 0 1 -2.81,0.47 3,3 0 0 1 0,-5.64 3,3 0 0 1 2.81,0.48 2.7,2.7 0 0 1 1,1.64 c 0.09,0.46 0.03,0.71 0,0.7 z"
       style="fill:#263238"
       id="path474" />
    <path
       d="m 306.62,376.33 c 0.05,0.14 -0.61,0.48 -1.21,1.12 -0.6,0.64 -0.93,1.29 -1.08,1.25 -0.15,-0.04 0,-0.88 0.7,-1.61 0.7,-0.73 1.56,-0.89 1.59,-0.76 z"
       style="fill:#263238"
       id="path476" />
    <path
       d="m 306.62,378.37 c -0.13,0.09 -0.59,-0.42 -1.27,-0.87 -0.68,-0.45 -1.31,-0.7 -1.28,-0.85 0.03,-0.15 0.8,-0.11 1.58,0.42 0.78,0.53 1.09,1.24 0.97,1.3 z"
       style="fill:#263238"
       id="path478" />
    <g
       style="opacity:0.3"
       id="g482">
      <path
         d="m 222.38,344.39 a 2.83,2.83 0 0 0 1.94,3 3.12,3.12 0 0 0 3.39,-1.25 3.49,3.49 0 0 0 0,-3.66 3.45,3.45 0 0 1 -0.79,2.35 2.55,2.55 0 0 1 -2.25,0.88 2,2 0 0 1 -1.7,-1.64"
         id="path480" />
    </g>
    <circle
       cx="224.96001"
       cy="343.28"
       r="2.76"
       style="fill:#e0e0e0"
       id="circle484" />
    <path
       d="m 227.73,343.28 c 0,0 -0.06,-0.25 -0.19,-0.65 a 2.67,2.67 0 0 0 -1,-1.4 2.59,2.59 0 0 0 -2.41,-0.32 2.53,2.53 0 0 0 0,4.74 2.62,2.62 0 0 0 2.42,-0.32 2.7,2.7 0 0 0 1,-1.4 c 0.13,-0.4 0.14,-0.65 0.19,-0.65 a 1.21,1.21 0 0 1 0,0.7 2.75,2.75 0 0 1 -1,1.64 2.93,2.93 0 0 1 -2.81,0.48 3,3 0 0 1 0,-5.64 2.93,2.93 0 0 1 2.81,0.48 2.75,2.75 0 0 1 1,1.64 1.21,1.21 0 0 1 -0.01,0.7 z"
       style="fill:#263238"
       id="path486" />
    <path
       d="m 226.24,342.1 c 0,0.14 -0.61,0.48 -1.21,1.12 -0.6,0.64 -0.93,1.29 -1.08,1.24 -0.15,-0.05 0,-0.88 0.7,-1.61 0.7,-0.73 1.56,-0.85 1.59,-0.75 z"
       style="fill:#263238"
       id="path488" />
    <path
       d="m 226.24,344.14 c -0.13,0.08 -0.59,-0.42 -1.27,-0.87 -0.68,-0.45 -1.31,-0.7 -1.28,-0.85 0.03,-0.15 0.8,-0.11 1.58,0.41 0.78,0.52 1.09,1.24 0.97,1.31 z"
       style="fill:#263238"
       id="path490" />
    <g
       style="opacity:0.3"
       id="g494">
      <path
         d="m 221.8,378.29 a 2.8,2.8 0 0 0 1.93,3 3.11,3.11 0 0 0 3.39,-1.24 3.47,3.47 0 0 0 0,-3.66 3.47,3.47 0 0 1 -0.78,2.34 2.57,2.57 0 0 1 -2.26,0.89 2,2 0 0 1 -1.69,-1.64"
         id="path492" />
    </g>
    <circle
       cx="224.38"
       cy="377.17001"
       r="2.76"
       style="fill:#e0e0e0"
       id="circle496" />
    <path
       d="m 227.14,377.17 c 0,0 0,-0.24 -0.18,-0.65 a 2.87,2.87 0 0 0 -1,-1.4 2.61,2.61 0 0 0 -2.42,-0.32 2.54,2.54 0 1 0 2.42,4.42 2.78,2.78 0 0 0 1,-1.4 6,6 0 0 1 0.18,-0.65 c 0,0 0.09,0.25 0,0.7 a 2.72,2.72 0 0 1 -1,1.65 3,3 0 0 1 -2.81,0.48 3,3 0 0 1 0,-5.65 3,3 0 0 1 2.81,0.48 2.72,2.72 0 0 1 1,1.65 c 0.09,0.45 0.03,0.7 0,0.69 z"
       style="fill:#263238"
       id="path498" />
    <path
       d="m 225.65,376 c 0,0.14 -0.6,0.48 -1.21,1.12 -0.61,0.64 -0.93,1.29 -1.07,1.25 -0.14,-0.04 0,-0.88 0.7,-1.61 0.7,-0.73 1.55,-0.9 1.58,-0.76 z"
       style="fill:#263238"
       id="path500" />
    <path
       d="m 225.65,378 c -0.12,0.08 -0.58,-0.43 -1.26,-0.88 -0.68,-0.45 -1.32,-0.7 -1.29,-0.85 0.03,-0.15 0.81,-0.11 1.58,0.42 0.77,0.53 1.09,1.31 0.97,1.31 z"
       style="fill:#263238"
       id="path502" />
    <g
       style="opacity:0.3"
       id="g506">
      <path
         d="m 218.25,385.08 c 10.82,2.35 23.46,2.44 35.15,1.87 5.62,-0.28 11.79,-0.63 16.29,2.76 1,0.74 2.14,1.71 3.3,1.28 1.68,-0.63 1.74,-3.71 3.54,-3.77 0.9,0 1.59,0.83 1.88,1.68 a 13,13 0 0 0 0.82,2.56 c 0.46,0.78 1.55,1.3 2.27,0.75 1.14,-0.87 -0.18,-2.74 0.25,-4.11 0.43,-1.37 2.47,-1.53 3.85,-1 1.38,0.53 2.72,1.54 4.19,1.32 a 8.19,8.19 0 0 0 2.83,-1.45 c 2.63,-1.61 5.88,-1.7 9,-1.76 3.25,-0.05 6.6,-0.36 9.85,-0.42 z"
         id="path504" />
    </g>
    <path
       d="m 292.77,349.79 a 2.22,2.22 0 0 1 -0.51,0.18 11.73,11.73 0 0 0 -1.45,0.49 22,22 0 0 0 -4.88,2.76 c -1.95,1.36 -4.1,3.24 -6.83,4.9 a 15.6,15.6 0 0 1 -4.63,1.93 26.2,26.2 0 0 1 -5.34,0.4 c -3.65,0 -6.84,1.48 -9.6,3 -2.76,1.52 -5.29,2.84 -7.26,4.17 a 26.22,26.22 0 0 0 -4.34,3.56 c -0.93,1 -1.36,1.55 -1.4,1.52 -0.04,-0.03 0.08,-0.16 0.28,-0.45 a 14,14 0 0 1 1,-1.21 23.79,23.79 0 0 1 4.28,-3.72 78,78 0 0 1 7.24,-4.3 33.09,33.09 0 0 1 4.52,-2.1 15.5,15.5 0 0 1 5.29,-0.95 26.23,26.23 0 0 0 5.25,-0.38 15.77,15.77 0 0 0 4.5,-1.84 c 2.68,-1.61 4.87,-3.46 6.86,-4.79 a 20.61,20.61 0 0 1 5,-2.65 8.71,8.71 0 0 1 1.49,-0.4 2,2 0 0 1 0.53,-0.12 z"
       style="fill:#263238"
       id="path508" />
    <path
       d="m 269.06,357.71 a 13,13 0 0 1 -2.9,-0.45 43.59,43.59 0 0 1 -6.77,-2.1 42.76,42.76 0 0 1 -6.34,-3.16 12.39,12.39 0 0 1 -2.41,-1.69 25.49,25.49 0 0 1 2.59,1.37 59.77,59.77 0 0 0 13,5.23 21,21 0 0 1 2.83,0.8 z"
       style="fill:#263238"
       id="path510" />
    <path
       d="m 284.1,325.07 c 0.77,-0.41 23.24,-7.64 23.24,-7.64 l -21.48,12 z"
       style="fill:#0ed3cf"
       id="path512" />
    <path
       d="m 281.76,322.64 a 7.6,7.6 0 0 0 -7.6,7.6 h 15.2 a 7.6,7.6 0 0 0 -7.6,-7.6 z"
       style="fill:#263238"
       id="path514" />
    <path
       d="m 205.35,394.09 c -0.15,0 -0.26,-24.42 -0.26,-54.54 0,-30.12 0.11,-54.55 0.26,-54.55 0.15,0 0.26,24.42 0.26,54.55 0,30.13 -0.12,54.54 -0.26,54.54 z"
       style="fill:#263238"
       id="path516" />
    <path
       d="m 324.2,394.09 c -0.15,0 -0.26,-24.42 -0.26,-54.54 0,-30.12 0.11,-54.55 0.26,-54.55 0.15,0 0.26,24.42 0.26,54.55 0,30.13 -0.12,54.54 -0.26,54.54 z"
       style="fill:#263238"
       id="path518" />
    <circle
       cx="200.36"
       cy="298.63"
       r="1.17"
       style="fill:#263238"
       id="circle520" />
    <circle
       cx="200.36"
       cy="320.51001"
       r="1.17"
       style="fill:#263238"
       id="circle522" />
    <circle
       cx="200.36"
       cy="342.39999"
       r="1.17"
       style="fill:#263238"
       id="circle524" />
    <circle
       cx="200.36"
       cy="364.29001"
       r="1.17"
       style="fill:#263238"
       id="circle526" />
    <circle
       cx="200.36"
       cy="386.17001"
       r="1.17"
       style="fill:#263238"
       id="circle528" />
    <circle
       cx="330.31"
       cy="298.63"
       r="1.17"
       style="fill:#263238"
       id="circle530" />
    <circle
       cx="330.31"
       cy="320.51001"
       r="1.17"
       style="fill:#263238"
       id="circle532" />
    <circle
       cx="330.31"
       cy="342.39999"
       r="1.17"
       style="fill:#263238"
       id="circle534" />
    <circle
       cx="330.31"
       cy="364.29001"
       r="1.17"
       style="fill:#263238"
       id="circle536" />
    <circle
       cx="330.31"
       cy="386.17001"
       r="1.17"
       style="fill:#263238"
       id="circle538" />
    <rect
       x="234.3"
       y="272.26999"
       width="51.099998"
       height="12.04"
       style="fill:#455a64"
       id="rect540" />
    <path
       d="m 238,284.32 a 32.12,32.12 0 0 1 -0.26,-5.82 32,32 0 0 1 0.26,-5.81 33.09,33.09 0 0 1 0.26,5.81 33.25,33.25 0 0 1 -0.26,5.82 z"
       style="fill:#263238"
       id="path542" />
    <path
       d="m 243.23,284.32 a 33.25,33.25 0 0 1 -0.26,-5.82 33.09,33.09 0 0 1 0.26,-5.81 32,32 0 0 1 0.26,5.81 32.12,32.12 0 0 1 -0.26,5.82 z"
       style="fill:#263238"
       id="path544" />
    <path
       d="m 248.48,284.32 a 33.25,33.25 0 0 1 -0.26,-5.82 33.09,33.09 0 0 1 0.26,-5.81 33.09,33.09 0 0 1 0.26,5.81 33.25,33.25 0 0 1 -0.26,5.82 z"
       style="fill:#263238"
       id="path546" />
    <path
       d="m 253.73,284.32 a 32.12,32.12 0 0 1 -0.26,-5.82 32,32 0 0 1 0.26,-5.81 33.09,33.09 0 0 1 0.26,5.81 33.25,33.25 0 0 1 -0.26,5.82 z"
       style="fill:#263238"
       id="path548" />
    <path
       d="m 259,284.32 a 33.25,33.25 0 0 1 -0.26,-5.82 33.09,33.09 0 0 1 0.26,-5.81 32,32 0 0 1 0.26,5.81 32.12,32.12 0 0 1 -0.26,5.82 z"
       style="fill:#263238"
       id="path550" />
    <path
       d="m 264.22,284.32 a 33.25,33.25 0 0 1 -0.26,-5.82 33.09,33.09 0 0 1 0.26,-5.81 33.09,33.09 0 0 1 0.26,5.81 33.25,33.25 0 0 1 -0.26,5.82 z"
       style="fill:#263238"
       id="path552" />
    <path
       d="m 269.47,284.32 a 32.12,32.12 0 0 1 -0.26,-5.82 32,32 0 0 1 0.26,-5.81 33.09,33.09 0 0 1 0.26,5.81 33.25,33.25 0 0 1 -0.26,5.82 z"
       style="fill:#263238"
       id="path554" />
    <path
       d="m 274.71,284.32 a 33.25,33.25 0 0 1 -0.26,-5.82 33.09,33.09 0 0 1 0.26,-5.81 32,32 0 0 1 0.26,5.81 32.12,32.12 0 0 1 -0.26,5.82 z"
       style="fill:#263238"
       id="path556" />
    <path
       d="m 280,284.32 a 33.25,33.25 0 0 1 -0.26,-5.82 33.09,33.09 0 0 1 0.26,-5.81 33.09,33.09 0 0 1 0.26,5.81 33.25,33.25 0 0 1 -0.26,5.82 z"
       style="fill:#263238"
       id="path558" />
    <g
       style="opacity:0.3"
       id="g562">
      <path
         d="m 345.68,310.42 c 1.24,6.26 2.39,12.16 3.62,18.42 a 26.7,26.7 0 0 1 -3.62,0 c 0,-6 0,-12.41 0,-18.41"
         id="path560" />
    </g>
    <path
       d="m 192.15,296.05 c 0.14,0 0,18.68 -0.35,41.71 -0.35,23.03 -0.71,41.7 -0.86,41.7 -0.15,0 0,-18.67 0.34,-41.71 0.34,-23.04 0.72,-41.7 0.87,-41.7 z"
       style="fill:#ffffff"
       id="path564" />
    <path
       d="m 213.89,382 c -0.15,0 -0.26,-9.3 -0.26,-20.77 0,-11.47 0.11,-20.77 0.26,-20.77 0.15,0 0.26,9.3 0.26,20.77 0,11.47 -0.15,20.77 -0.26,20.77 z"
       style="fill:#ffffff"
       id="path566" />
    <path
       d="m 312.1,287.68 c 0,0.15 -22.93,0.26 -51.2,0.26 -28.27,0 -51.2,-0.11 -51.2,-0.26 0,-0.15 22.92,-0.26 51.2,-0.26 28.28,0 51.2,0.12 51.2,0.26 z"
       style="fill:#ffffff"
       id="path568" />
  </g>
  <g
     id="freepik--Floor--inject-48"
     transform="translate(-37.38,-34.870643)">
    <path
       d="m 462.62,475.16 c 0,0.14 -95.2,0.26 -212.61,0.26 -117.41,0 -212.63,-0.12 -212.63,-0.26 0,-0.14 95.18,-0.26 212.63,-0.26 117.45,0 212.61,0.1 212.61,0.26 z"
       style="fill:#263238"
       id="path571" />
  </g>
</svg>
